<?xml version="1.0" encoding="utf-8"?><svg version="1.1" xmlns="http://www.w3.org/2000/svg" xmlns:xlink="http://www.w3.org/1999/xlink" width="13" height="13" x="0px" y="0px" viewBox="0 0 13 13" style="enable-background:new 0 0 13 13;" xml:space="preserve"><style type="text/css">.st0{fill:#FFFFFF;stroke:#BEBEBE;stroke-width:0.77;stroke-miterlimit:10;} .st1{fill:#FED500;} .st2{fill:#5D5D5D;}</style><path class="st0" d="M11.15,12.5H1.85c-0.74,0-1.35-0.6-1.35-1.35V1.85C0.5,1.1,1.1,0.5,1.85,0.5h9.31c0.74,0,1.35,0.6,1.35,1.35 v9.31C12.5,11.9,11.9,12.5,11.15,12.5z"/><polygon class="st1" points="0,6.5 0,0 6.5,0 "/><path class="st2" d="M6.47,3.9c0.49,0,0.87,0.17,1.14,0.52C7.94,4.83,8.1,5.51,8.1,6.46c0,0.95-0.16,1.63-0.49,2.04 C7.34,8.84,6.96,9.02,6.47,9.02c-0.49,0-0.88-0.19-1.18-0.56S4.85,7.41,4.85,6.45c0-0.94,0.16-1.62,0.49-2.04 C5.61,4.07,5.99,3.9,6.47,3.9z M6.47,4.69c-0.12,0-0.22,0.04-0.31,0.11C6.07,4.88,6,5.01,5.95,5.2c-0.07,0.25-0.1,0.67-0.1,1.25 c0,0.59,0.03,0.99,0.09,1.21s0.13,0.37,0.22,0.44c0.09,0.07,0.19,0.11,0.31,0.11s0.22-0.04,0.31-0.11S6.95,7.9,7,7.71 c0.07-0.25,0.1-0.66,0.1-1.25c0-0.59-0.03-0.99-0.09-1.21C6.95,5.03,6.87,4.88,6.78,4.81C6.69,4.73,6.59,4.69,6.47,4.69z"/></svg>