<?xml version="1.0" encoding="utf-8"?><svg version="1.1" xmlns="http://www.w3.org/2000/svg" xmlns:xlink="http://www.w3.org/1999/xlink" width="13" height="13" x="0px" y="0px" viewBox="0 0 13 13" style="enable-background:new 0 0 13 13;" xml:space="preserve"><style type="text/css">.st0{fill:#FFFFFF;stroke:#BEBEBE;stroke-width:0.77;stroke-miterlimit:10;} .st1{fill:#FED500;} .st2{fill:#5D5D5D;}</style><path class="st0" d="M11.15,12.5H1.85c-0.74,0-1.35-0.6-1.35-1.35V1.85C0.5,1.1,1.1,0.5,1.85,0.5h9.31c0.74,0,1.35,0.6,1.35,1.35 v9.31C12.5,11.9,11.9,12.5,11.15,12.5z"/><polygon class="st1" points="0,6.5 0,0 6.5,0 "/><path class="st2" d="M5.36,8.93H4.4V5.31C4.05,5.64,3.64,5.88,3.16,6.04V5.17C3.41,5.08,3.68,4.93,3.98,4.7 c0.29-0.23,0.5-0.5,0.6-0.8h0.78V8.93z"/> <path class="st2" d="M8.42,3.9c0.49,0,0.86,0.17,1.14,0.52c0.33,0.41,0.49,1.09,0.49,2.04c0,0.95-0.16,1.63-0.49,2.04 C9.28,8.84,8.91,9.02,8.42,9.02c-0.49,0-0.88-0.19-1.18-0.56c-0.3-0.38-0.45-1.04-0.45-2.01c0-0.94,0.16-1.62,0.49-2.04 C7.56,4.07,7.94,3.9,8.42,3.9z M8.42,4.69c-0.12,0-0.22,0.04-0.31,0.11C8.02,4.88,7.95,5.01,7.9,5.2C7.83,5.45,7.8,5.87,7.8,6.46 c0,0.59,0.03,0.99,0.09,1.21s0.13,0.37,0.22,0.44S8.3,8.22,8.42,8.22s0.22-0.04,0.31-0.11c0.09-0.07,0.16-0.21,0.21-0.4 c0.07-0.25,0.1-0.66,0.1-1.25c0-0.59-0.03-0.99-0.09-1.21C8.89,5.03,8.82,4.88,8.73,4.81C8.64,4.73,8.54,4.69,8.42,4.69z"/></svg>