<?xml version="1.0" encoding="utf-8"?><svg version="1.1" xmlns="http://www.w3.org/2000/svg" xmlns:xlink="http://www.w3.org/1999/xlink" width="13" height="13" x="0px" y="0px" viewBox="0 0 13 13" style="enable-background:new 0 0 13 13;" xml:space="preserve"><style type="text/css">.st0{fill:#FFFFFF;stroke:#BEBEBE;stroke-width:0.77;stroke-miterlimit:10;} .st1{fill:#FED500;} .st2{fill:#5D5D5D;}</style><path class="st0" d="M11.15,12.5H1.85c-0.74,0-1.35-0.6-1.35-1.35V1.85C0.5,1.1,1.1,0.5,1.85,0.5h9.31c0.74,0,1.35,0.6,1.35,1.35 v9.31C12.5,11.9,11.9,12.5,11.15,12.5z"/><polygon class="st1" points="0,6.5 0,0 6.5,0 "/><path class="st2" d="M8.09,8.04v0.89H4.73c0.04-0.34,0.15-0.66,0.33-0.96s0.54-0.7,1.08-1.2c0.43-0.4,0.7-0.68,0.8-0.82 c0.13-0.2,0.2-0.39,0.2-0.59c0-0.21-0.06-0.38-0.17-0.49C6.84,4.75,6.68,4.69,6.48,4.69c-0.2,0-0.36,0.06-0.48,0.18 S5.82,5.2,5.8,5.48l-0.96-0.1C4.9,4.85,5.08,4.47,5.38,4.24S6.05,3.9,6.51,3.9C7,3.9,7.39,4.03,7.67,4.3s0.42,0.6,0.42,0.99 c0,0.23-0.04,0.44-0.12,0.64c-0.08,0.2-0.21,0.42-0.38,0.64C7.47,6.73,7.26,6.94,6.96,7.22c-0.3,0.28-0.5,0.46-0.58,0.55 C6.3,7.86,6.24,7.95,6.19,8.04H8.09z"/></svg>