<?xml version="1.0" encoding="utf-8"?><svg version="1.1" xmlns="http://www.w3.org/2000/svg" xmlns:xlink="http://www.w3.org/1999/xlink" width="13" height="13" x="0px" y="0px" viewBox="0 0 13 13" style="enable-background:new 0 0 13 13;" xml:space="preserve"><style type="text/css">.st0{fill:#FFFFFF;stroke:#BEBEBE;stroke-width:0.77;stroke-miterlimit:10;} .st1{fill:#FED500;} .st2{fill:#5D5D5D;}</style><path class="st0" d="M11.15,12.5H1.85c-0.74,0-1.35-0.6-1.35-1.35V1.85C0.5,1.1,1.1,0.5,1.85,0.5h9.31c0.74,0,1.35,0.6,1.35,1.35 v9.31C12.5,11.9,11.9,12.5,11.15,12.5z"/><polygon class="st1" points="0,6.5 0,0 6.5,0 "/><path class="st2" d="M4.82,7.6l0.93-0.11c0.03,0.24,0.11,0.42,0.24,0.54c0.13,0.12,0.29,0.19,0.47,0.19c0.2,0,0.37-0.08,0.5-0.23 c0.14-0.15,0.2-0.35,0.2-0.61c0-0.24-0.07-0.43-0.2-0.57C6.84,6.67,6.68,6.6,6.49,6.6c-0.12,0-0.27,0.02-0.44,0.07l0.11-0.78 c0.26,0.01,0.46-0.05,0.59-0.17C6.89,5.6,6.96,5.44,6.96,5.24c0-0.17-0.05-0.3-0.15-0.4s-0.23-0.15-0.4-0.15 c-0.16,0-0.3,0.06-0.42,0.17S5.8,5.14,5.77,5.36L4.89,5.21c0.06-0.3,0.15-0.55,0.28-0.73c0.12-0.18,0.3-0.32,0.52-0.43 C5.91,3.95,6.16,3.9,6.43,3.9c0.47,0,0.85,0.15,1.13,0.45C7.8,4.6,7.92,4.87,7.92,5.18c0,0.44-0.24,0.79-0.72,1.05 c0.29,0.06,0.52,0.2,0.69,0.41s0.26,0.47,0.26,0.78c0,0.44-0.16,0.81-0.48,1.12c-0.32,0.31-0.72,0.46-1.2,0.46 c-0.45,0-0.83-0.13-1.13-0.39S4.86,8.02,4.82,7.6z"/></svg>