<?xml version="1.0" encoding="utf-8"?><svg version="1.1" xmlns="http://www.w3.org/2000/svg" xmlns:xlink="http://www.w3.org/1999/xlink" width="13" height="13" x="0px" y="0px" viewBox="0 0 13 13" style="enable-background:new 0 0 13 13;" xml:space="preserve"><style type="text/css">.st0{fill:#FFFFFF;stroke:#BEBEBE;stroke-width:0.77;stroke-miterlimit:10;} .st1{fill:#FED500;} .st2{fill:#5D5D5D;}</style><path class="st0" d="M11.15,12.5H1.85c-0.74,0-1.35-0.6-1.35-1.35V1.85C0.5,1.1,1.1,0.5,1.85,0.5h9.31c0.74,0,1.35,0.6,1.35,1.35 v9.31C12.5,11.9,11.9,12.5,11.15,12.5z"/><polygon class="st1" points="0,6.5 0,0 6.5,0 "/><path class="st2" d="M8.1,5.15l-0.93,0.1C7.15,5.06,7.09,4.92,7,4.82C6.9,4.73,6.78,4.69,6.62,4.69c-0.2,0-0.37,0.09-0.51,0.27 C5.97,5.14,5.88,5.52,5.85,6.1c0.24-0.28,0.54-0.42,0.89-0.42c0.4,0,0.74,0.15,1.03,0.46S8.2,6.83,8.2,7.32 c0,0.51-0.15,0.92-0.45,1.23c-0.3,0.31-0.69,0.46-1.16,0.46c-0.51,0-0.92-0.2-1.25-0.59C5.01,8.03,4.85,7.39,4.85,6.49 c0-0.92,0.17-1.58,0.51-1.99S6.14,3.9,6.68,3.9c0.38,0,0.7,0.11,0.94,0.32C7.88,4.43,8.04,4.74,8.1,5.15z M5.93,7.24 c0,0.31,0.07,0.55,0.22,0.72s0.31,0.25,0.49,0.25c0.18,0,0.33-0.07,0.44-0.21C7.2,7.87,7.26,7.64,7.26,7.33 c0-0.33-0.06-0.56-0.19-0.72C6.94,6.46,6.78,6.38,6.59,6.38c-0.18,0-0.34,0.07-0.47,0.22C5.99,6.74,5.93,6.96,5.93,7.24z"/></svg>