<?xml version="1.0" encoding="utf-8"?><svg version="1.1" xmlns="http://www.w3.org/2000/svg" xmlns:xlink="http://www.w3.org/1999/xlink" width="13" height="13" x="0px" y="0px" viewBox="0 0 13 13" style="enable-background:new 0 0 13 13;" xml:space="preserve"><style type="text/css">.st0{fill:#FFFFFF;stroke:#BEBEBE;stroke-width:0.77;stroke-miterlimit:10;} .st1{fill:#FED500;} .st2{fill:#5D5D5D;}</style><path class="st0" d="M11.15,12.5H1.85c-0.74,0-1.35-0.6-1.35-1.35V1.85C0.5,1.1,1.1,0.5,1.85,0.5h9.31c0.74,0,1.35,0.6,1.35,1.35 v9.31C12.5,11.9,11.9,12.5,11.15,12.5z"/><polygon class="st1" points="0,6.5 0,0 6.5,0 "/><path class="st2" d="M5.67,6.23c-0.25-0.1-0.43-0.25-0.54-0.43c-0.11-0.18-0.17-0.38-0.17-0.6c0-0.37,0.13-0.68,0.39-0.93 C5.62,4.02,5.99,3.9,6.47,3.9c0.48,0,0.85,0.12,1.11,0.37c0.26,0.24,0.39,0.55,0.39,0.93c0,0.23-0.06,0.44-0.18,0.62 C7.67,5.99,7.5,6.13,7.28,6.23C7.56,6.34,7.77,6.5,7.92,6.71c0.14,0.21,0.22,0.46,0.22,0.74c0,0.46-0.15,0.84-0.44,1.13 C7.39,8.87,7,9.02,6.51,9.02c-0.46,0-0.83-0.12-1.14-0.36C5.02,8.38,4.84,7.99,4.84,7.5c0-0.27,0.07-0.52,0.2-0.75 C5.17,6.52,5.39,6.35,5.67,6.23z M5.78,7.41c0,0.26,0.07,0.47,0.2,0.62C6.12,8.17,6.29,8.25,6.5,8.25c0.2,0,0.36-0.07,0.49-0.21 s0.19-0.35,0.19-0.62c0-0.24-0.07-0.42-0.2-0.57c-0.13-0.14-0.3-0.21-0.5-0.21c-0.23,0-0.41,0.08-0.52,0.24 C5.84,7.04,5.78,7.22,5.78,7.41z M5.87,5.26c0,0.19,0.05,0.34,0.16,0.45c0.11,0.11,0.25,0.16,0.43,0.16 c0.18,0,0.33-0.05,0.44-0.16C7.01,5.6,7.07,5.45,7.07,5.25c0-0.18-0.05-0.32-0.16-0.43C6.8,4.71,6.66,4.66,6.48,4.66 c-0.18,0-0.33,0.05-0.44,0.16S5.87,5.08,5.87,5.26z"/></svg>