<?xml version="1.0" encoding="utf-8"?><svg version="1.1" xmlns="http://www.w3.org/2000/svg" xmlns:xlink="http://www.w3.org/1999/xlink" width="13" height="13" x="0px" y="0px" viewBox="0 0 13 13" style="enable-background:new 0 0 13 13;" xml:space="preserve"><style type="text/css">.st0{fill:#FFFFFF;stroke:#BEBEBE;stroke-width:0.77;stroke-miterlimit:10;} .st1{fill:#FED500;} .st2{fill:#5D5D5D;}</style><path class="st0" d="M11.15,12.5H1.85c-0.74,0-1.35-0.6-1.35-1.35V1.85C0.5,1.1,1.1,0.5,1.85,0.5h9.31c0.74,0,1.35,0.6,1.35,1.35 v9.31C12.5,11.9,11.9,12.5,11.15,12.5z"/><polygon class="st1" points="0,6.5 0,0 6.5,0 "/><path class="st2" d="M4.87,7.77l0.93-0.1C5.82,7.86,5.88,8,5.98,8.09S6.2,8.23,6.36,8.23c0.2,0,0.37-0.09,0.51-0.27 C7,7.77,7.09,7.39,7.13,6.82C6.89,7.1,6.59,7.24,6.23,7.24c-0.39,0-0.73-0.15-1.02-0.46c-0.29-0.3-0.43-0.7-0.43-1.19 c0-0.51,0.15-0.92,0.45-1.23C5.53,4.05,5.92,3.9,6.38,3.9c0.51,0,0.93,0.2,1.25,0.59c0.33,0.39,0.49,1.04,0.49,1.94 c0,0.92-0.17,1.58-0.51,1.98C7.27,8.82,6.83,9.02,6.29,9.02c-0.39,0-0.71-0.1-0.95-0.31C5.09,8.5,4.94,8.19,4.87,7.77z M7.04,5.67 c0-0.31-0.07-0.55-0.21-0.72C6.69,4.78,6.52,4.69,6.34,4.69c-0.18,0-0.33,0.07-0.44,0.21C5.78,5.04,5.72,5.27,5.72,5.59 c0,0.32,0.06,0.56,0.19,0.71C6.04,6.46,6.2,6.53,6.39,6.53c0.18,0,0.34-0.07,0.47-0.22C6.98,6.17,7.04,5.95,7.04,5.67z"/></svg>