<?xml version="1.0" encoding="utf-8"?><svg version="1.1" xmlns="http://www.w3.org/2000/svg" xmlns:xlink="http://www.w3.org/1999/xlink" width="13" height="13" x="0px" y="0px" viewBox="0 0 13 13" style="enable-background:new 0 0 13 13;" xml:space="preserve"><style type="text/css">.st0{fill:#FFFFFF;stroke:#BEBEBE;stroke-width:0.77;stroke-miterlimit:10;} .st1{fill:#FED500;} .st2{fill:#5D5D5D;}</style><path class="st0" d="M11.15,12.5H1.85c-0.74,0-1.35-0.6-1.35-1.35V1.85C0.5,1.1,1.1,0.5,1.85,0.5h9.31c0.74,0,1.35,0.6,1.35,1.35 v9.31C12.5,11.9,11.9,12.5,11.15,12.5z"/><polygon class="st1" points="0,6.5 0,0 6.5,0 "/><path class="st2" d="M6.5,3.73c0.56,0,0.98,0.23,1.28,0.69s0.44,1.16,0.44,2.1c0,0.93-0.15,1.62-0.45,2.04 C7.48,9,7.05,9.21,6.5,9.21c-0.28,0-0.52-0.05-0.73-0.16c-0.21-0.11-0.4-0.27-0.54-0.49c-0.15-0.22-0.26-0.5-0.33-0.84 C4.82,7.39,4.78,6.99,4.78,6.52c0-0.94,0.15-1.64,0.44-2.1S5.95,3.73,6.5,3.73z M6.5,4.22c-0.74,0-1.11,0.77-1.11,2.32 c0,0.77,0.09,1.33,0.27,1.67S6.13,8.73,6.5,8.73c0.37,0,0.64-0.17,0.83-0.52c0.19-0.35,0.28-0.9,0.28-1.67 C7.61,4.99,7.24,4.22,6.5,4.22z"/></svg>