<?xml version="1.0" encoding="utf-8"?><svg version="1.1" xmlns="http://www.w3.org/2000/svg" xmlns:xlink="http://www.w3.org/1999/xlink" width="13" height="13" x="0px" y="0px" viewBox="0 0 13 13" style="enable-background:new 0 0 13 13;" xml:space="preserve"><style type="text/css">.st0{fill:#FFFFFF;stroke:#BEBEBE;stroke-width:0.77;stroke-miterlimit:10;} .st1{fill:#FED500;} .st2{fill:#5D5D5D;}</style><path class="st0" d="M11.15,12.5H1.85c-0.74,0-1.35-0.6-1.35-1.35V1.85C0.5,1.1,1.1,0.5,1.85,0.5h9.31c0.74,0,1.35,0.6,1.35,1.35 v9.31C12.5,11.9,11.9,12.5,11.15,12.5z"/><polygon class="st1" points="0,6.5 0,0 6.5,0 "/><path class="st2" d="M3.27,5V4.56c0.19-0.08,0.37-0.19,0.54-0.31s0.33-0.27,0.47-0.43h0.63v5.31h-0.6V4.48H4.31 C4.15,4.6,3.99,4.71,3.83,4.8C3.67,4.89,3.51,4.97,3.34,5.03C3.3,5.05,3.27,5.04,3.27,5z"/> <path class="st2" d="M8.54,3.73c0.56,0,0.98,0.23,1.28,0.69c0.3,0.46,0.44,1.16,0.44,2.1c0,0.93-0.15,1.62-0.45,2.04 C9.52,9,9.09,9.21,8.54,9.21c-0.28,0-0.52-0.05-0.74-0.16C7.59,8.95,7.41,8.79,7.27,8.57c-0.15-0.22-0.26-0.5-0.33-0.84 C6.86,7.39,6.82,6.99,6.82,6.52c0-0.94,0.15-1.64,0.44-2.1C7.56,3.96,7.99,3.73,8.54,3.73z M8.54,4.22 c-0.74,0-1.11,0.77-1.11,2.32c0,0.77,0.09,1.33,0.28,1.67C7.9,8.55,8.17,8.73,8.54,8.73c0.37,0,0.64-0.17,0.83-0.52 s0.28-0.9,0.28-1.67C9.65,4.99,9.28,4.22,8.54,4.22z"/></svg>