<?xml version="1.0" encoding="utf-8"?><svg version="1.1" xmlns="http://www.w3.org/2000/svg" xmlns:xlink="http://www.w3.org/1999/xlink" width="13" height="13" x="0px" y="0px" viewBox="0 0 13 13" style="enable-background:new 0 0 13 13;" xml:space="preserve"><style type="text/css">.st0{fill:#FFFFFF;stroke:#BEBEBE;stroke-width:0.77;stroke-miterlimit:10;} .st1{fill:#FED500;} .st2{fill:#5D5D5D;}</style><path class="st0" d="M11.15,12.5H1.85c-0.74,0-1.35-0.6-1.35-1.35V1.85C0.5,1.1,1.1,0.5,1.85,0.5h9.31c0.74,0,1.35,0.6,1.35,1.35 v9.31C12.5,11.9,11.9,12.5,11.15,12.5z"/><polygon class="st1" points="0,6.5 0,0 6.5,0 "/><path class="st2" d="M5.1,4.83C5.04,4.89,5.02,4.88,5.02,4.81V4.28C5.22,4.13,5.43,4,5.66,3.89s0.51-0.16,0.82-0.16 c0.51,0,0.89,0.12,1.16,0.35s0.4,0.58,0.4,1.06c0,0.16-0.03,0.31-0.08,0.45C7.91,5.74,7.84,5.88,7.75,6.03s-0.2,0.3-0.33,0.46 C7.29,6.65,7.15,6.82,6.99,7L5.57,8.63v0.01h2.55v0.49H4.84V8.6l1.63-1.83c0.18-0.23,0.33-0.43,0.46-0.58 c0.12-0.16,0.22-0.29,0.29-0.41s0.12-0.23,0.15-0.33c0.03-0.1,0.04-0.21,0.04-0.32c0-0.28-0.07-0.51-0.22-0.67S6.82,4.22,6.5,4.22 c-0.22,0-0.45,0.05-0.69,0.16S5.34,4.63,5.1,4.83z"/></svg>