<?xml version="1.0" encoding="utf-8"?><svg version="1.1" xmlns="http://www.w3.org/2000/svg" xmlns:xlink="http://www.w3.org/1999/xlink" width="13" height="13" x="0px" y="0px" viewBox="0 0 13 13" style="enable-background:new 0 0 13 13;" xml:space="preserve"><style type="text/css">.st0{fill:#FFFFFF;stroke:#BEBEBE;stroke-width:0.77;stroke-miterlimit:10;} .st1{fill:#FED500;} .st2{fill:#5D5D5D;}</style><path class="st0" d="M11.15,12.5H1.85c-0.74,0-1.35-0.6-1.35-1.35V1.85C0.5,1.1,1.1,0.5,1.85,0.5h9.31c0.74,0,1.35,0.6,1.35,1.35 v9.31C12.5,11.9,11.9,12.5,11.15,12.5z"/><polygon class="st1" points="0,6.5 0,0 6.5,0 "/><path class="st2" d="M6.47,9.19c-0.31,0-0.61-0.05-0.9-0.15s-0.52-0.22-0.7-0.39v-0.5c0-0.03,0.01-0.05,0.02-0.06 c0.02-0.01,0.04,0,0.06,0.02c0.25,0.21,0.5,0.36,0.75,0.45C5.95,8.65,6.21,8.7,6.48,8.7c0.15,0,0.3-0.02,0.43-0.07 c0.13-0.05,0.24-0.12,0.34-0.21c0.1-0.09,0.18-0.2,0.23-0.32c0.05-0.12,0.08-0.26,0.08-0.41c0-0.72-0.44-1.09-1.3-1.09H6.08v-0.5 h0.08c0.17,0,0.33-0.02,0.48-0.05C6.8,6.03,6.93,5.97,7.05,5.9c0.12-0.07,0.21-0.17,0.28-0.3c0.07-0.13,0.1-0.29,0.1-0.49 c0-0.31-0.09-0.54-0.28-0.69c-0.18-0.14-0.42-0.22-0.7-0.22c-0.22,0-0.46,0.04-0.69,0.13C5.53,4.43,5.31,4.57,5.1,4.75 C5.08,4.76,5.07,4.77,5.05,4.76c-0.02,0-0.02-0.02-0.02-0.05V4.2C5.1,4.14,5.18,4.08,5.28,4.02c0.1-0.06,0.21-0.11,0.33-0.15 S5.86,3.79,6,3.76c0.14-0.03,0.29-0.04,0.44-0.04c0.23,0,0.45,0.03,0.65,0.08c0.2,0.06,0.37,0.14,0.51,0.26s0.25,0.26,0.33,0.43 c0.08,0.17,0.12,0.37,0.12,0.59c0,0.16-0.02,0.31-0.07,0.45S7.87,5.79,7.79,5.9C7.7,6.01,7.6,6.1,7.49,6.18 C7.37,6.25,7.24,6.3,7.11,6.33v0.01c0.34,0.07,0.6,0.22,0.79,0.42c0.19,0.21,0.29,0.51,0.29,0.9c0,0.2-0.04,0.39-0.11,0.57 C8,8.42,7.89,8.59,7.75,8.73C7.61,8.87,7.43,8.98,7.21,9.06C7,9.15,6.75,9.19,6.47,9.19z"/></svg>