<?xml version="1.0" encoding="utf-8"?><svg version="1.1" xmlns="http://www.w3.org/2000/svg" xmlns:xlink="http://www.w3.org/1999/xlink" width="13" height="13" x="0px" y="0px" viewBox="0 0 13 13" style="enable-background:new 0 0 13 13;" xml:space="preserve"><style type="text/css">.st0{fill:#FFFFFF;stroke:#BEBEBE;stroke-width:0.77;stroke-miterlimit:10;} .st1{fill:#FED500;} .st2{fill:#5D5D5D;}</style><path class="st0" d="M11.15,12.5H1.85c-0.74,0-1.35-0.6-1.35-1.35V1.85C0.5,1.1,1.1,0.5,1.85,0.5h9.31c0.74,0,1.35,0.6,1.35,1.35 v9.31C12.5,11.9,11.9,12.5,11.15,12.5z"/><polygon class="st1" points="0,6.5 0,0 6.5,0 "/><path class="st2" d="M4.94,8.26C5.16,8.41,5.39,8.53,5.62,8.6S6.1,8.71,6.37,8.71c0.18,0,0.35-0.04,0.5-0.1 c0.15-0.06,0.29-0.15,0.4-0.26c0.11-0.11,0.2-0.23,0.26-0.38c0.06-0.15,0.1-0.31,0.1-0.49c0-0.21-0.04-0.38-0.12-0.52 C7.44,6.82,7.33,6.7,7.19,6.61c-0.14-0.09-0.3-0.15-0.48-0.19c-0.18-0.04-0.38-0.06-0.6-0.06c-0.16,0-0.34,0.01-0.52,0.04 S5.22,6.45,5.05,6.49L5.2,3.85h2.74v0.48H5.71L5.6,5.95h0.01C5.75,5.94,5.88,5.93,6,5.92c0.12-0.01,0.24-0.01,0.36-0.01 c0.28,0,0.53,0.03,0.76,0.1C7.35,6.07,7.54,6.17,7.71,6.3C7.88,6.43,8.01,6.59,8.1,6.78c0.09,0.19,0.14,0.4,0.14,0.64 c0,0.25-0.04,0.48-0.13,0.7C8.02,8.33,7.89,8.52,7.73,8.68c-0.16,0.16-0.36,0.28-0.6,0.38C6.9,9.14,6.64,9.19,6.35,9.19 c-0.31,0-0.59-0.04-0.83-0.1c-0.24-0.06-0.46-0.17-0.66-0.3V8.3c0-0.03,0.01-0.04,0.02-0.05C4.9,8.24,4.92,8.25,4.94,8.26z"/></svg>