<?xml version="1.0" encoding="utf-8"?><svg version="1.1" xmlns="http://www.w3.org/2000/svg" xmlns:xlink="http://www.w3.org/1999/xlink" width="13" height="13" x="0px" y="0px" viewBox="0 0 13 13" style="enable-background:new 0 0 13 13;" xml:space="preserve"><style type="text/css">.st0{fill:#FFFFFF;stroke:#BEBEBE;stroke-width:0.77;stroke-miterlimit:10;} .st1{fill:#FED500;} .st2{fill:#5D5D5D;}</style><path class="st0" d="M11.15,12.5H1.85c-0.74,0-1.35-0.6-1.35-1.35V1.85C0.5,1.1,1.1,0.5,1.85,0.5h9.31c0.74,0,1.35,0.6,1.35,1.35 v9.31C12.5,11.9,11.9,12.5,11.15,12.5z"/><polygon class="st1" points="0,6.5 0,0 6.5,0 "/><path class="st2" d="M7.95,4.47C7.81,4.39,7.67,4.33,7.52,4.28C7.36,4.23,7.2,4.21,7.02,4.21c-0.25,0-0.47,0.06-0.67,0.18 s-0.36,0.28-0.5,0.48s-0.25,0.44-0.32,0.7C5.46,5.84,5.41,6.12,5.4,6.42h0.01c0.05-0.1,0.11-0.2,0.19-0.3s0.17-0.18,0.28-0.25 C6,5.8,6.12,5.74,6.25,5.7c0.13-0.04,0.28-0.06,0.43-0.06c0.25,0,0.47,0.04,0.67,0.13s0.36,0.21,0.49,0.36 c0.13,0.15,0.23,0.34,0.3,0.55s0.11,0.44,0.11,0.69c0,0.28-0.04,0.52-0.12,0.75c-0.08,0.22-0.2,0.42-0.35,0.57 C7.63,8.84,7.45,8.97,7.24,9.05C7.03,9.14,6.8,9.18,6.55,9.18c-0.36,0-0.65-0.08-0.88-0.23C5.45,8.8,5.28,8.61,5.15,8.37 S4.94,7.87,4.9,7.58C4.85,7.28,4.83,7,4.83,6.71c0-0.36,0.04-0.72,0.12-1.07c0.08-0.36,0.21-0.68,0.38-0.96 c0.18-0.28,0.4-0.51,0.68-0.69c0.27-0.18,0.61-0.27,0.99-0.27c0.2,0,0.38,0.02,0.54,0.05c0.16,0.04,0.32,0.09,0.46,0.15v0.52 C8.01,4.49,7.99,4.5,7.95,4.47z M5.46,7.42c0,0.17,0.02,0.34,0.07,0.49C5.58,8.06,5.66,8.2,5.75,8.31 c0.1,0.12,0.21,0.21,0.35,0.28C6.23,8.66,6.38,8.7,6.55,8.7c0.19,0,0.35-0.04,0.49-0.12c0.14-0.08,0.25-0.18,0.34-0.3 c0.09-0.12,0.15-0.26,0.2-0.42C7.62,7.71,7.64,7.56,7.64,7.4c0-0.17-0.02-0.34-0.06-0.49C7.53,6.75,7.47,6.62,7.38,6.5 C7.3,6.39,7.19,6.3,7.06,6.23c-0.13-0.07-0.28-0.1-0.46-0.1c-0.19,0-0.35,0.03-0.49,0.1C5.98,6.3,5.86,6.39,5.77,6.51 C5.68,6.63,5.6,6.77,5.56,6.92C5.51,7.08,5.47,7.25,5.46,7.42z"/></svg>