<?xml version="1.0" encoding="utf-8"?><svg version="1.1" xmlns="http://www.w3.org/2000/svg" xmlns:xlink="http://www.w3.org/1999/xlink" width="13" height="13" x="0px" y="0px" viewBox="0 0 13 13" style="enable-background:new 0 0 13 13;" xml:space="preserve"><style type="text/css">.st0{fill:#FFFFFF;stroke:#BEBEBE;stroke-width:0.77;stroke-miterlimit:10;} .st1{fill:#FED500;} .st2{fill:#5D5D5D;}</style><path class="st0" d="M11.15,12.5H1.85c-0.74,0-1.35-0.6-1.35-1.35V1.85C0.5,1.1,1.1,0.5,1.85,0.5h9.31c0.74,0,1.35,0.6,1.35,1.35 v9.31C12.5,11.9,11.9,12.5,11.15,12.5z"/><polygon class="st1" points="0,6.5 0,0 6.5,0 "/><path class="st2" d="M6.5,9.19c-0.3,0-0.56-0.04-0.78-0.11s-0.41-0.17-0.55-0.3C5.02,8.65,4.91,8.5,4.83,8.32 C4.76,8.14,4.72,7.95,4.72,7.75c0-0.34,0.09-0.64,0.26-0.89s0.45-0.43,0.83-0.53V6.32C5.52,6.23,5.28,6.08,5.1,5.87 S4.84,5.42,4.84,5.13c0-0.19,0.03-0.37,0.1-0.54c0.07-0.17,0.17-0.32,0.31-0.44s0.31-0.23,0.52-0.3C5.97,3.77,6.22,3.73,6.5,3.73 c0.28,0,0.52,0.04,0.73,0.11c0.21,0.07,0.38,0.18,0.52,0.3c0.14,0.13,0.24,0.27,0.31,0.44c0.07,0.17,0.1,0.35,0.1,0.54 c0,0.29-0.09,0.54-0.27,0.75c-0.18,0.2-0.41,0.35-0.71,0.44v0.01c0.38,0.1,0.66,0.27,0.83,0.53c0.18,0.25,0.26,0.55,0.26,0.89 c0,0.21-0.04,0.4-0.11,0.57C8.09,8.5,7.98,8.65,7.83,8.78C7.68,8.91,7.5,9.01,7.28,9.08C7.05,9.15,6.79,9.19,6.5,9.19z M6.5,8.7 c0.16,0,0.31-0.02,0.45-0.07c0.14-0.05,0.27-0.12,0.37-0.21s0.19-0.2,0.25-0.33c0.06-0.13,0.09-0.27,0.09-0.44 c0-0.16-0.03-0.3-0.09-0.44S7.42,6.97,7.32,6.87C7.21,6.77,7.09,6.7,6.95,6.64S6.65,6.56,6.5,6.56c-0.16,0-0.31,0.03-0.45,0.08 S5.78,6.77,5.68,6.87c-0.11,0.1-0.19,0.21-0.25,0.35C5.36,7.35,5.33,7.5,5.33,7.66c0,0.16,0.03,0.31,0.09,0.44 c0.06,0.13,0.14,0.24,0.25,0.33C5.78,8.51,5.9,8.58,6.04,8.63C6.18,8.67,6.33,8.7,6.5,8.7z M6.5,6.06c0.13,0,0.26-0.02,0.38-0.06 s0.24-0.1,0.33-0.18c0.1-0.08,0.18-0.18,0.24-0.29s0.09-0.25,0.09-0.4c0-0.14-0.03-0.28-0.08-0.39s-0.13-0.22-0.23-0.3 C7.13,4.34,7.02,4.28,6.9,4.24C6.77,4.19,6.64,4.17,6.5,4.17c-0.14,0-0.28,0.02-0.4,0.07C5.97,4.28,5.86,4.34,5.76,4.43 c-0.09,0.08-0.17,0.18-0.23,0.3C5.48,4.85,5.45,4.98,5.45,5.12c0,0.15,0.03,0.28,0.09,0.4C5.6,5.64,5.68,5.74,5.78,5.81 C5.88,5.89,5.99,5.95,6.11,6C6.24,6.04,6.37,6.06,6.5,6.06z"/></svg>