<?xml version="1.0" encoding="utf-8"?><svg version="1.1" xmlns="http://www.w3.org/2000/svg" xmlns:xlink="http://www.w3.org/1999/xlink" width="13" height="13" x="0px" y="0px" viewBox="0 0 13 13" style="enable-background:new 0 0 13 13;" xml:space="preserve"><style type="text/css">.st0{fill:#FFFFFF;stroke:#BEBEBE;stroke-width:0.77;stroke-miterlimit:10;} .st1{fill:#FED500;} .st2{fill:#5D5D5D;}</style><path class="st0" d="M11.15,12.5H1.85c-0.74,0-1.35-0.6-1.35-1.35V1.85C0.5,1.1,1.1,0.5,1.85,0.5h9.31c0.74,0,1.35,0.6,1.35,1.35 v9.31C12.5,11.9,11.9,12.5,11.15,12.5z"/><polygon class="st1" points="0,6.5 0,0 6.5,0 "/><path class="st2" d="M5.05,8.98v-0.5c0-0.06,0.02-0.07,0.06-0.03c0.14,0.08,0.28,0.14,0.43,0.19C5.7,8.67,5.86,8.69,6.03,8.69 c0.25,0,0.47-0.05,0.67-0.16c0.2-0.1,0.36-0.25,0.5-0.45c0.14-0.19,0.25-0.43,0.32-0.7c0.08-0.27,0.12-0.57,0.13-0.9H7.64 c-0.05,0.1-0.11,0.2-0.19,0.29C7.36,6.87,7.27,6.96,7.16,7.03C7.05,7.1,6.93,7.16,6.8,7.2S6.52,7.26,6.37,7.26 c-0.26,0-0.49-0.04-0.69-0.13c-0.2-0.09-0.36-0.21-0.49-0.36C5.06,6.63,4.97,6.44,4.9,6.23S4.8,5.8,4.8,5.55 c0-0.27,0.04-0.52,0.12-0.75c0.08-0.22,0.2-0.42,0.35-0.58C5.42,4.06,5.6,3.94,5.81,3.85C6.01,3.76,6.24,3.72,6.5,3.72 c0.36,0,0.65,0.08,0.88,0.23C7.6,4.1,7.78,4.3,7.9,4.53c0.12,0.24,0.21,0.5,0.25,0.8C8.2,5.63,8.22,5.92,8.22,6.2 c0,0.38-0.04,0.75-0.12,1.1C8.02,7.66,7.89,7.98,7.72,8.25c-0.18,0.28-0.4,0.5-0.68,0.67C6.77,9.1,6.44,9.18,6.05,9.18 C5.66,9.18,5.32,9.11,5.05,8.98z M7.6,5.49C7.6,5.31,7.57,5.15,7.52,5C7.47,4.84,7.39,4.71,7.3,4.59 C7.21,4.47,7.09,4.38,6.96,4.31S6.67,4.2,6.5,4.2c-0.19,0-0.35,0.04-0.48,0.12C5.88,4.4,5.77,4.5,5.68,4.62 c-0.09,0.12-0.15,0.26-0.2,0.42S5.42,5.35,5.42,5.51c0,0.17,0.02,0.34,0.06,0.49c0.04,0.15,0.1,0.29,0.18,0.4 c0.08,0.11,0.19,0.21,0.32,0.27c0.13,0.07,0.29,0.1,0.48,0.1c0.19,0,0.35-0.03,0.49-0.1C7.08,6.61,7.19,6.52,7.29,6.4 C7.38,6.28,7.45,6.14,7.5,5.99C7.55,5.83,7.58,5.66,7.6,5.49z"/></svg>