<?xml version="1.0" encoding="utf-8"?><svg version="1.1" xmlns="http://www.w3.org/2000/svg" xmlns:xlink="http://www.w3.org/1999/xlink" width="13" height="13" x="0px" y="0px" viewBox="0 0 13 13" style="enable-background:new 0 0 13 13;" xml:space="preserve"><style type="text/css">.st0{fill:#FFFFFF;stroke:#BEBEBE;stroke-width:0.77;stroke-miterlimit:10;} .st1{fill:#FED500;} .st2{fill:#5D5D5D;}</style><path class="st0" d="M11.15,12.5H1.85c-0.74,0-1.35-0.6-1.35-1.35V1.85C0.5,1.1,1.1,0.5,1.85,0.5h9.31c0.74,0,1.35,0.6,1.35,1.35 v9.31C12.5,11.9,11.9,12.5,11.15,12.5z"/><polygon class="st1" points="0,6.5 0,0 6.5,0 "/><path class="st2" d="M8.36,6.52c0,0.44-0.05,0.82-0.14,1.15C8.12,8,7.99,8.27,7.82,8.48C7.65,8.69,7.46,8.85,7.23,8.95 C7,9.06,6.76,9.11,6.49,9.11S5.99,9.06,5.76,8.95c-0.23-0.1-0.42-0.26-0.59-0.47C5.01,8.27,4.88,8,4.79,7.67S4.65,6.96,4.65,6.52 c0-0.44,0.05-0.83,0.14-1.15c0.09-0.32,0.22-0.59,0.39-0.8c0.17-0.21,0.36-0.37,0.59-0.47c0.23-0.1,0.47-0.16,0.73-0.16 S7,3.99,7.23,4.09c0.23,0.1,0.42,0.26,0.59,0.47c0.17,0.21,0.3,0.48,0.39,0.8C8.31,5.69,8.36,6.08,8.36,6.52z M7.46,6.52 c0-0.37-0.03-0.67-0.08-0.91C7.33,5.37,7.26,5.18,7.17,5.04C7.08,4.9,6.97,4.8,6.86,4.74C6.74,4.68,6.62,4.65,6.49,4.65 c-0.12,0-0.24,0.03-0.36,0.09C6.02,4.8,5.92,4.9,5.83,5.04C5.74,5.18,5.67,5.37,5.62,5.61C5.56,5.85,5.54,6.16,5.54,6.52 c0,0.37,0.03,0.67,0.08,0.91c0.05,0.24,0.12,0.43,0.21,0.57c0.09,0.14,0.19,0.24,0.31,0.3c0.12,0.06,0.24,0.09,0.36,0.09 c0.13,0,0.25-0.03,0.36-0.09c0.12-0.06,0.22-0.16,0.31-0.3c0.09-0.14,0.16-0.33,0.22-0.57C7.44,7.19,7.46,6.89,7.46,6.52z"/></svg>