<?xml version="1.0" encoding="utf-8"?><svg version="1.1" xmlns="http://www.w3.org/2000/svg" xmlns:xlink="http://www.w3.org/1999/xlink" width="13" height="13" x="0px" y="0px" viewBox="0 0 13 13" style="enable-background:new 0 0 13 13;" xml:space="preserve"><style type="text/css">.st0{fill:#FFFFFF;stroke:#BEBEBE;stroke-width:0.77;stroke-miterlimit:10;} .st1{fill:#FED500;} .st2{fill:#5D5D5D;}</style><path class="st0" d="M11.15,12.5H1.85c-0.74,0-1.35-0.6-1.35-1.35V1.85C0.5,1.1,1.1,0.5,1.85,0.5h9.31c0.74,0,1.35,0.6,1.35,1.35 v9.31C12.5,11.9,11.9,12.5,11.15,12.5z"/><polygon class="st1" points="0,6.5 0,0 6.5,0 "/><path class="st2" d="M5.41,8.41h1.03V5.45c0-0.11,0-0.23,0.01-0.36L5.72,5.7C5.69,5.73,5.66,5.75,5.63,5.76 C5.6,5.76,5.56,5.77,5.53,5.77c-0.05,0-0.09-0.01-0.13-0.03C5.37,5.72,5.34,5.7,5.32,5.67L5.05,5.3l1.54-1.31H7.3v4.42h0.91v0.65 h-2.8V8.41z"/></svg>