<?xml version="1.0" encoding="utf-8"?><svg version="1.1" xmlns="http://www.w3.org/2000/svg" xmlns:xlink="http://www.w3.org/1999/xlink" width="13" height="13" x="0px" y="0px" viewBox="0 0 13 13" style="enable-background:new 0 0 13 13;" xml:space="preserve"><style type="text/css">.st0{fill:#FFFFFF;stroke:#BEBEBE;stroke-width:0.77;stroke-miterlimit:10;} .st1{fill:#FED500;} .st2{fill:#5D5D5D;}</style><path class="st0" d="M11.15,12.5H1.85c-0.74,0-1.35-0.6-1.35-1.35V1.85C0.5,1.1,1.1,0.5,1.85,0.5h9.31c0.74,0,1.35,0.6,1.35,1.35 v9.31C12.5,11.9,11.9,12.5,11.15,12.5z"/><polygon class="st1" points="0,6.5 0,0 6.5,0 "/><path class="st2" d="M3.38,8.41h1.03V5.45c0-0.11,0-0.23,0.01-0.36L3.69,5.7C3.66,5.73,3.63,5.75,3.6,5.76 C3.57,5.76,3.53,5.77,3.5,5.77c-0.05,0-0.09-0.01-0.13-0.03C3.34,5.72,3.31,5.7,3.29,5.67L3.02,5.3l1.54-1.31h0.71v4.42h0.91v0.65 h-2.8V8.41z"/> <path class="st2" d="M10.38,6.52c0,0.44-0.05,0.82-0.14,1.15s-0.23,0.59-0.39,0.81C9.68,8.69,9.49,8.85,9.26,8.95 S8.79,9.11,8.52,9.11S8.01,9.06,7.79,8.95C7.56,8.85,7.37,8.69,7.2,8.48C7.04,8.27,6.91,8,6.81,7.67S6.67,6.96,6.67,6.52 c0-0.44,0.05-0.83,0.14-1.15c0.09-0.32,0.22-0.59,0.39-0.8s0.36-0.37,0.59-0.47c0.22-0.1,0.47-0.16,0.73-0.16s0.51,0.05,0.74,0.16 c0.23,0.1,0.42,0.26,0.59,0.47c0.17,0.21,0.3,0.48,0.39,0.8C10.34,5.69,10.38,6.08,10.38,6.52z M9.49,6.52 c0-0.37-0.03-0.67-0.08-0.91S9.29,5.18,9.2,5.04C9.11,4.9,9,4.8,8.89,4.74C8.77,4.68,8.65,4.65,8.52,4.65 c-0.12,0-0.24,0.03-0.36,0.09C8.05,4.8,7.95,4.9,7.86,5.04C7.77,5.18,7.7,5.37,7.65,5.61S7.57,6.16,7.57,6.52 c0,0.37,0.03,0.67,0.08,0.91s0.12,0.43,0.21,0.57c0.09,0.14,0.19,0.24,0.31,0.3C8.28,8.36,8.4,8.39,8.52,8.39 c0.13,0,0.25-0.03,0.36-0.09C9,8.25,9.11,8.15,9.2,8.01c0.09-0.14,0.16-0.33,0.22-0.57S9.49,6.89,9.49,6.52z"/></svg>