<?xml version="1.0" encoding="utf-8"?><svg version="1.1" xmlns="http://www.w3.org/2000/svg" xmlns:xlink="http://www.w3.org/1999/xlink" width="13" height="13" x="0px" y="0px" viewBox="0 0 13 13" style="enable-background:new 0 0 13 13;" xml:space="preserve"><style type="text/css">.st0{fill:#FFFFFF;stroke:#BEBEBE;stroke-width:0.77;stroke-miterlimit:10;} .st1{fill:#FED500;} .st2{fill:#5D5D5D;}</style><path class="st0" d="M11.15,12.5H1.85c-0.74,0-1.35-0.6-1.35-1.35V1.85C0.5,1.1,1.1,0.5,1.85,0.5h9.31c0.74,0,1.35,0.6,1.35,1.35 v9.31C12.5,11.9,11.9,12.5,11.15,12.5z"/><polygon class="st1" points="0,6.5 0,0 6.5,0 "/><path class="st2" d="M6.58,3.94c0.23,0,0.45,0.03,0.64,0.1c0.19,0.07,0.36,0.17,0.5,0.29c0.14,0.13,0.24,0.28,0.32,0.46 c0.08,0.18,0.12,0.37,0.12,0.59c0,0.19-0.03,0.36-0.08,0.52C8.02,6.05,7.94,6.21,7.85,6.35C7.76,6.5,7.65,6.63,7.53,6.77 C7.4,6.91,7.27,7.04,7.14,7.18L6,8.35c0.11-0.03,0.22-0.06,0.33-0.08c0.11-0.02,0.21-0.03,0.31-0.03h1.3 c0.09,0,0.17,0.03,0.22,0.08c0.05,0.05,0.08,0.12,0.08,0.21v0.52H4.76V8.77c0-0.06,0.01-0.12,0.04-0.18 c0.02-0.06,0.06-0.12,0.12-0.17l1.54-1.54C6.58,6.74,6.7,6.61,6.8,6.49s0.19-0.24,0.26-0.35s0.12-0.23,0.16-0.35 c0.04-0.12,0.05-0.25,0.05-0.38c0-0.12-0.02-0.23-0.05-0.32C7.18,4.99,7.13,4.92,7.06,4.85C7,4.79,6.92,4.74,6.83,4.71 c-0.09-0.03-0.19-0.05-0.3-0.05c-0.21,0-0.38,0.05-0.51,0.16c-0.13,0.1-0.23,0.25-0.28,0.42C5.71,5.33,5.67,5.4,5.62,5.44 S5.5,5.49,5.42,5.49c-0.04,0-0.07,0-0.12-0.01L4.85,5.4c0.04-0.24,0.1-0.46,0.2-0.64S5.28,4.43,5.43,4.3 c0.15-0.12,0.32-0.21,0.52-0.28C6.14,3.97,6.35,3.94,6.58,3.94z"/></svg>