<?xml version="1.0" encoding="utf-8"?><svg version="1.1" xmlns="http://www.w3.org/2000/svg" xmlns:xlink="http://www.w3.org/1999/xlink" width="13" height="13" x="0px" y="0px" viewBox="0 0 13 13" style="enable-background:new 0 0 13 13;" xml:space="preserve"><style type="text/css">.st0{fill:#FFFFFF;stroke:#BEBEBE;stroke-width:0.77;stroke-miterlimit:10;} .st1{fill:#FED500;} .st2{fill:#5D5D5D;}</style><path class="st0" d="M11.15,12.5H1.85c-0.74,0-1.35-0.6-1.35-1.35V1.85C0.5,1.1,1.1,0.5,1.85,0.5h9.31c0.74,0,1.35,0.6,1.35,1.35 v9.31C12.5,11.9,11.9,12.5,11.15,12.5z"/><polygon class="st1" points="0,6.5 0,0 6.5,0 "/><path class="st2" d="M6.66,3.94c0.23,0,0.44,0.03,0.63,0.1C7.48,4.1,7.64,4.19,7.77,4.31s0.23,0.26,0.3,0.41 c0.07,0.16,0.11,0.33,0.11,0.51c0,0.16-0.02,0.3-0.05,0.43C8.09,5.79,8.04,5.9,7.97,5.99C7.9,6.08,7.82,6.15,7.72,6.22 c-0.1,0.06-0.21,0.12-0.34,0.16c0.3,0.1,0.53,0.24,0.68,0.44c0.15,0.2,0.22,0.44,0.22,0.74c0,0.25-0.05,0.48-0.14,0.67 C8.05,8.41,7.93,8.58,7.77,8.71s-0.34,0.23-0.55,0.3c-0.21,0.07-0.43,0.1-0.66,0.1c-0.25,0-0.48-0.03-0.67-0.09 C5.7,8.96,5.53,8.88,5.39,8.76C5.25,8.65,5.14,8.51,5.04,8.34c-0.1-0.17-0.18-0.36-0.25-0.57l0.38-0.16 c0.07-0.03,0.13-0.04,0.2-0.04c0.06,0,0.11,0.01,0.16,0.04s0.08,0.06,0.11,0.11C5.68,7.8,5.73,7.88,5.78,7.96s0.11,0.15,0.18,0.21 C6.03,8.23,6.11,8.28,6.2,8.32C6.3,8.36,6.41,8.38,6.54,8.38c0.15,0,0.28-0.02,0.39-0.07C7.04,8.26,7.13,8.2,7.2,8.12 s0.13-0.16,0.17-0.26C7.4,7.77,7.42,7.67,7.42,7.58c0-0.12-0.01-0.23-0.04-0.33C7.36,7.15,7.3,7.06,7.22,6.99 c-0.08-0.07-0.2-0.12-0.35-0.17C6.72,6.79,6.51,6.77,6.26,6.77V6.15c0.21,0,0.39-0.02,0.53-0.06c0.14-0.04,0.25-0.09,0.33-0.16 S7.26,5.79,7.29,5.7s0.05-0.2,0.05-0.31c0-0.24-0.06-0.42-0.2-0.54S6.83,4.66,6.61,4.66c-0.21,0-0.38,0.05-0.51,0.16 S5.87,5.07,5.81,5.24C5.79,5.33,5.75,5.4,5.7,5.43S5.59,5.49,5.51,5.49c-0.04,0-0.08,0-0.12-0.01L4.93,5.4 c0.04-0.24,0.1-0.46,0.2-0.64c0.1-0.18,0.23-0.34,0.38-0.46c0.15-0.12,0.32-0.21,0.52-0.28C6.22,3.97,6.43,3.94,6.66,3.94z"/></svg>