<?xml version="1.0" encoding="utf-8"?><svg version="1.1" xmlns="http://www.w3.org/2000/svg" xmlns:xlink="http://www.w3.org/1999/xlink" width="13" height="13" x="0px" y="0px" viewBox="0 0 13 13" style="enable-background:new 0 0 13 13;" xml:space="preserve"><style type="text/css">.st0{fill:#FFFFFF;stroke:#BEBEBE;stroke-width:0.77;stroke-miterlimit:10;} .st1{fill:#FED500;} .st2{fill:#5D5D5D;}</style><path class="st0" d="M11.15,12.5H1.85c-0.74,0-1.35-0.6-1.35-1.35V1.85C0.5,1.1,1.1,0.5,1.85,0.5h9.31c0.74,0,1.35,0.6,1.35,1.35 v9.31C12.5,11.9,11.9,12.5,11.15,12.5z"/><polygon class="st1" points="0,6.5 0,0 6.5,0 "/><path class="st2" d="M7.77,7.15H8.4v0.5c0,0.05-0.02,0.09-0.04,0.12C8.33,7.8,8.28,7.82,8.23,7.82H7.77v1.24H7.01V7.82H4.88 c-0.06,0-0.11-0.02-0.15-0.05S4.65,7.68,4.64,7.63L4.55,7.19l2.4-3.2h0.82V7.15z M7.01,5.49c0-0.07,0-0.16,0.01-0.24 c0-0.09,0.01-0.18,0.03-0.27L5.47,7.15h1.54V5.49z"/></svg>