<?xml version="1.0" encoding="utf-8"?><svg version="1.1" xmlns="http://www.w3.org/2000/svg" xmlns:xlink="http://www.w3.org/1999/xlink" width="13" height="13" x="0px" y="0px" viewBox="0 0 13 13" style="enable-background:new 0 0 13 13;" xml:space="preserve"><style type="text/css">.st0{fill:#FFFFFF;stroke:#BEBEBE;stroke-width:0.77;stroke-miterlimit:10;} .st1{fill:#FED500;} .st2{fill:#5D5D5D;}</style><path class="st0" d="M11.15,12.5H1.85c-0.74,0-1.35-0.6-1.35-1.35V1.85C0.5,1.1,1.1,0.5,1.85,0.5h9.31c0.74,0,1.35,0.6,1.35,1.35 v9.31C12.5,11.9,11.9,12.5,11.15,12.5z"/><polygon class="st1" points="0,6.5 0,0 6.5,0 "/><path class="st2" d="M7.93,4.36c0,0.12-0.04,0.22-0.12,0.3S7.61,4.78,7.42,4.78H6.03L5.85,5.83c0.23-0.05,0.44-0.07,0.63-0.07 c0.27,0,0.5,0.04,0.7,0.12c0.2,0.08,0.37,0.19,0.51,0.33C7.82,6.35,7.93,6.51,8,6.7C8.07,6.89,8.1,7.09,8.1,7.31 c0,0.27-0.05,0.51-0.14,0.74C7.87,8.27,7.74,8.46,7.57,8.61S7.2,8.89,6.97,8.98C6.74,9.07,6.49,9.11,6.22,9.11 c-0.16,0-0.31-0.02-0.45-0.05c-0.14-0.03-0.28-0.08-0.4-0.13C5.24,8.87,5.13,8.81,5.02,8.74c-0.11-0.07-0.2-0.15-0.29-0.23L5,8.15 c0.06-0.08,0.13-0.12,0.22-0.12c0.06,0,0.12,0.02,0.18,0.06s0.13,0.08,0.21,0.12c0.08,0.04,0.17,0.08,0.28,0.12 s0.23,0.06,0.38,0.06c0.16,0,0.3-0.03,0.42-0.08c0.12-0.05,0.22-0.12,0.3-0.22C7.07,8,7.13,7.89,7.17,7.76 C7.21,7.64,7.24,7.5,7.24,7.35C7.24,7.07,7.16,6.86,7,6.7C6.84,6.55,6.6,6.47,6.29,6.47c-0.24,0-0.49,0.04-0.74,0.13L5.01,6.45 l0.42-2.46h2.5V4.36z"/></svg>