<?xml version="1.0" encoding="utf-8"?><svg version="1.1" xmlns="http://www.w3.org/2000/svg" xmlns:xlink="http://www.w3.org/1999/xlink" width="13" height="13" x="0px" y="0px" viewBox="0 0 13 13" style="enable-background:new 0 0 13 13;" xml:space="preserve"><style type="text/css">.st0{fill:#FFFFFF;stroke:#BEBEBE;stroke-width:0.77;stroke-miterlimit:10;} .st1{fill:#FED500;} .st2{fill:#5D5D5D;}</style><path class="st0" d="M11.15,12.5H1.85c-0.74,0-1.35-0.6-1.35-1.35V1.85C0.5,1.1,1.1,0.5,1.85,0.5h9.31c0.74,0,1.35,0.6,1.35,1.35 v9.31C12.5,11.9,11.9,12.5,11.15,12.5z"/><polygon class="st1" points="0,6.5 0,0 6.5,0 "/><path class="st2" d="M6.82,5.89c0.19,0,0.38,0.03,0.56,0.09c0.18,0.06,0.34,0.16,0.48,0.29C7.99,6.4,8.1,6.56,8.18,6.75 c0.08,0.19,0.13,0.41,0.13,0.66c0,0.24-0.04,0.46-0.13,0.66C8.09,8.28,7.97,8.46,7.82,8.61C7.66,8.77,7.47,8.89,7.25,8.98 C7.03,9.06,6.79,9.11,6.52,9.11c-0.27,0-0.51-0.04-0.73-0.13C5.58,8.89,5.4,8.77,5.24,8.62S4.98,8.28,4.9,8.06 C4.81,7.84,4.77,7.6,4.77,7.33c0-0.24,0.05-0.48,0.15-0.73s0.25-0.51,0.45-0.78l1.21-1.62c0.04-0.06,0.1-0.1,0.18-0.14 c0.08-0.04,0.17-0.06,0.28-0.06h0.77l-1.5,1.84C6.27,5.87,6.24,5.91,6.21,5.94C6.19,5.98,6.16,6.01,6.13,6.05 C6.23,6,6.33,5.96,6.45,5.93C6.56,5.91,6.68,5.89,6.82,5.89z M5.6,7.46c0,0.14,0.02,0.27,0.06,0.38c0.04,0.12,0.1,0.21,0.17,0.3 C5.91,8.22,6,8.29,6.12,8.33C6.23,8.38,6.36,8.4,6.5,8.4c0.14,0,0.26-0.02,0.38-0.07C7,8.29,7.1,8.22,7.18,8.14 c0.08-0.08,0.15-0.18,0.19-0.3S7.45,7.6,7.45,7.47c0-0.14-0.02-0.27-0.07-0.39C7.33,6.96,7.27,6.87,7.19,6.79S7.01,6.64,6.9,6.6 S6.66,6.54,6.52,6.54S6.26,6.56,6.14,6.61C6.03,6.66,5.94,6.72,5.85,6.8C5.77,6.89,5.71,6.98,5.67,7.1 C5.63,7.21,5.6,7.33,5.6,7.46z"/></svg>