<?xml version="1.0" encoding="utf-8"?><svg version="1.1" xmlns="http://www.w3.org/2000/svg" xmlns:xlink="http://www.w3.org/1999/xlink" width="13" height="13" x="0px" y="0px" viewBox="0 0 13 13" style="enable-background:new 0 0 13 13;" xml:space="preserve"><style type="text/css">.st0{fill:#FFFFFF;stroke:#BEBEBE;stroke-width:0.77;stroke-miterlimit:10;} .st1{fill:#FED500;} .st2{fill:#5D5D5D;}</style><path class="st0" d="M11.15,12.5H1.85c-0.74,0-1.35-0.6-1.35-1.35V1.85C0.5,1.1,1.1,0.5,1.85,0.5h9.31c0.74,0,1.35,0.6,1.35,1.35 v9.31C12.5,11.9,11.9,12.5,11.15,12.5z"/><polygon class="st1" points="0,6.5 0,0 6.5,0 "/><path class="st2" d="M6.5,9.11C6.24,9.11,6,9.07,5.78,9s-0.4-0.17-0.56-0.3C5.08,8.58,4.96,8.42,4.87,8.24 C4.79,8.06,4.74,7.86,4.74,7.63c0-0.3,0.07-0.55,0.22-0.76s0.38-0.36,0.69-0.46C5.4,6.31,5.22,6.16,5.09,5.98 C4.97,5.79,4.91,5.56,4.91,5.29c0-0.19,0.04-0.37,0.12-0.54s0.19-0.31,0.33-0.43C5.5,4.2,5.66,4.11,5.86,4.04s0.41-0.1,0.64-0.1 c0.23,0,0.45,0.03,0.64,0.1c0.2,0.07,0.36,0.16,0.5,0.29c0.14,0.12,0.25,0.27,0.33,0.43S8.09,5.1,8.09,5.29 c0,0.27-0.06,0.49-0.19,0.68C7.78,6.16,7.6,6.31,7.35,6.41c0.31,0.1,0.54,0.25,0.69,0.46s0.22,0.46,0.22,0.76 c0,0.22-0.04,0.43-0.13,0.61C8.04,8.42,7.92,8.58,7.77,8.71C7.62,8.83,7.43,8.93,7.22,9S6.76,9.11,6.5,9.11z M6.5,8.43 c0.14,0,0.27-0.02,0.37-0.06c0.11-0.04,0.2-0.1,0.27-0.17c0.07-0.07,0.13-0.16,0.17-0.26s0.06-0.21,0.06-0.33 c0-0.28-0.08-0.49-0.23-0.63C6.98,6.84,6.77,6.77,6.5,6.77c-0.27,0-0.48,0.07-0.64,0.21C5.71,7.13,5.63,7.34,5.63,7.62 c0,0.12,0.02,0.22,0.06,0.33c0.04,0.1,0.09,0.19,0.17,0.26c0.07,0.07,0.16,0.13,0.27,0.17C6.23,8.41,6.36,8.43,6.5,8.43z M6.5,6.09c0.14,0,0.26-0.02,0.35-0.07s0.17-0.1,0.23-0.18c0.06-0.07,0.1-0.16,0.12-0.25C7.23,5.5,7.25,5.41,7.25,5.31 c0-0.1-0.02-0.19-0.05-0.27S7.12,4.87,7.06,4.81C7,4.74,6.93,4.69,6.83,4.65C6.74,4.61,6.63,4.59,6.5,4.59 c-0.13,0-0.24,0.02-0.33,0.06C6.07,4.69,6,4.74,5.94,4.81C5.87,4.87,5.83,4.95,5.8,5.03S5.75,5.21,5.75,5.31 c0,0.1,0.01,0.2,0.04,0.29c0.02,0.09,0.07,0.18,0.12,0.25c0.06,0.07,0.14,0.13,0.23,0.18S6.36,6.09,6.5,6.09z"/></svg>