<?xml version="1.0" encoding="utf-8"?><svg version="1.1" xmlns="http://www.w3.org/2000/svg" xmlns:xlink="http://www.w3.org/1999/xlink" width="13" height="13" x="0px" y="0px" viewBox="0 0 13 13" style="enable-background:new 0 0 13 13;" xml:space="preserve"><style type="text/css">.st0{fill:#FFFFFF;stroke:#BEBEBE;stroke-width:0.77;stroke-miterlimit:10;} .st1{fill:#FED500;} .st2{fill:#5D5D5D;}</style><path class="st0" d="M11.15,12.5H1.85c-0.74,0-1.35-0.6-1.35-1.35V1.85C0.5,1.1,1.1,0.5,1.85,0.5h9.31c0.74,0,1.35,0.6,1.35,1.35 v9.31C12.5,11.9,11.9,12.5,11.15,12.5z"/><polygon class="st1" points="0,6.5 0,0 6.5,0 "/><path class="st2" d="M6.33,7.03C6.15,7.03,5.98,7,5.81,6.94C5.64,6.88,5.49,6.79,5.36,6.67S5.12,6.39,5.04,6.21 C4.96,6.03,4.93,5.82,4.93,5.58c0-0.23,0.04-0.44,0.13-0.64c0.08-0.2,0.2-0.37,0.35-0.52c0.15-0.15,0.33-0.27,0.55-0.35 c0.21-0.09,0.45-0.13,0.7-0.13c0.26,0,0.49,0.04,0.7,0.12c0.21,0.08,0.38,0.2,0.53,0.34s0.26,0.32,0.34,0.53 C8.29,5.13,8.33,5.36,8.33,5.6c0,0.16-0.01,0.3-0.04,0.44c-0.03,0.14-0.07,0.27-0.12,0.4C8.13,6.58,8.07,6.71,8,6.83 C7.93,6.95,7.85,7.08,7.76,7.2L6.6,8.85C6.57,8.91,6.51,8.96,6.43,9C6.35,9.03,6.26,9.05,6.16,9.05H5.37l1.57-1.96 c0.04-0.05,0.08-0.1,0.11-0.14c0.03-0.05,0.07-0.09,0.1-0.14C7.03,6.88,6.91,6.94,6.77,6.98C6.63,7.01,6.48,7.03,6.33,7.03z M7.5,5.52c0-0.14-0.02-0.26-0.06-0.37c-0.04-0.11-0.1-0.2-0.18-0.27C7.19,4.8,7.09,4.74,6.99,4.7C6.88,4.66,6.77,4.64,6.64,4.64 c-0.13,0-0.25,0.02-0.35,0.06s-0.19,0.1-0.27,0.18C5.95,4.96,5.89,5.06,5.85,5.16C5.81,5.27,5.79,5.38,5.79,5.51 c0,0.28,0.07,0.5,0.22,0.65C6.15,6.3,6.36,6.38,6.63,6.38c0.14,0,0.26-0.02,0.37-0.07c0.11-0.04,0.2-0.1,0.28-0.18 c0.07-0.08,0.13-0.17,0.17-0.27S7.5,5.64,7.5,5.52z"/></svg>