<?xml version="1.0" encoding="utf-8"?><svg version="1.1" xmlns="http://www.w3.org/2000/svg" xmlns:xlink="http://www.w3.org/1999/xlink" width="13" height="13" x="0px" y="0px" viewBox="0 0 13 13" style="enable-background:new 0 0 13 13;" xml:space="preserve"><style type="text/css">.st0{fill:#FFFFFF;stroke:#BEBEBE;stroke-width:0.77;stroke-miterlimit:10;} .st1{fill:#FED500;} .st2{fill:#5D5D5D;}</style><path class="st0" d="M11.15,12.5H1.85c-0.74,0-1.35-0.6-1.35-1.35V1.85C0.5,1.1,1.1,0.5,1.85,0.5h9.31c0.74,0,1.35,0.6,1.35,1.35 v9.31C12.5,11.9,11.9,12.5,11.15,12.5z"/><polygon class="st1" points="0,6.5 0,0 6.5,0 "/><path class="st2" d="M6.5,9.17c-0.43,0-0.79-0.11-1.1-0.32C5.09,8.65,4.85,8.35,4.69,7.95c-0.16-0.4-0.25-0.87-0.24-1.43 c0-0.56,0.08-1.03,0.25-1.42c0.17-0.39,0.4-0.69,0.71-0.89C5.71,4,6.07,3.9,6.5,3.9S7.29,4,7.6,4.21c0.31,0.21,0.54,0.5,0.71,0.89 c0.16,0.39,0.25,0.86,0.25,1.42c0,0.56-0.08,1.04-0.25,1.43c-0.17,0.4-0.4,0.7-0.71,0.91S6.93,9.17,6.5,9.17z M6.5,8.28 c0.29,0,0.52-0.15,0.7-0.44c0.17-0.29,0.26-0.73,0.26-1.32c0-0.39-0.04-0.71-0.12-0.96C7.26,5.3,7.15,5.1,7.01,4.98 C6.86,4.85,6.69,4.78,6.5,4.78c-0.29,0-0.52,0.15-0.7,0.43c-0.17,0.29-0.26,0.72-0.26,1.3c0,0.39,0.04,0.72,0.12,0.98 s0.19,0.46,0.33,0.59C6.14,8.21,6.31,8.28,6.5,8.28z"/></svg>