<?xml version="1.0" encoding="utf-8"?><svg version="1.1" xmlns="http://www.w3.org/2000/svg" xmlns:xlink="http://www.w3.org/1999/xlink" width="13" height="13" x="0px" y="0px" viewBox="0 0 13 13" style="enable-background:new 0 0 13 13;" xml:space="preserve"><style type="text/css">.st0{fill:#FFFFFF;stroke:#BEBEBE;stroke-width:0.77;stroke-miterlimit:10;} .st1{fill:#FED500;} .st2{fill:#5D5D5D;}</style><path class="st0" d="M11.15,12.5H1.85c-0.74,0-1.35-0.6-1.35-1.35V1.85C0.5,1.1,1.1,0.5,1.85,0.5h9.31c0.74,0,1.35,0.6,1.35,1.35 v9.31C12.5,11.9,11.9,12.5,11.15,12.5z"/><polygon class="st1" points="0,6.5 0,0 6.5,0 "/><path class="st2" d="M4.71,9.06V8.29l1.81-1.68C6.67,6.46,6.8,6.32,6.91,6.2c0.1-0.12,0.19-0.24,0.24-0.35s0.08-0.24,0.08-0.37 c0-0.15-0.03-0.28-0.1-0.39C7.06,4.98,6.97,4.9,6.85,4.84C6.73,4.78,6.6,4.75,6.45,4.75c-0.16,0-0.29,0.03-0.41,0.09 C5.93,4.91,5.84,5,5.77,5.12S5.68,5.38,5.68,5.54H4.66c0-0.33,0.08-0.62,0.23-0.87C5.03,4.42,5.25,4.24,5.52,4.1 C5.79,3.97,6.1,3.9,6.46,3.9c0.36,0,0.68,0.06,0.95,0.19S7.89,4.4,8.04,4.63c0.15,0.23,0.23,0.49,0.23,0.78 c0,0.19-0.04,0.38-0.11,0.57c-0.08,0.19-0.21,0.4-0.4,0.62C7.56,6.83,7.29,7.1,6.94,7.42L6.2,8.15v0.04h2.14v0.88H4.71z"/></svg>