<?xml version="1.0" encoding="utf-8"?><svg version="1.1" xmlns="http://www.w3.org/2000/svg" xmlns:xlink="http://www.w3.org/1999/xlink" width="13" height="13" x="0px" y="0px" viewBox="0 0 13 13" style="enable-background:new 0 0 13 13;" xml:space="preserve"><style type="text/css">.st0{fill:#FFFFFF;stroke:#BEBEBE;stroke-width:0.77;stroke-miterlimit:10;} .st1{fill:#FED500;} .st2{fill:#5D5D5D;}</style><path class="st0" d="M11.15,12.5H1.85c-0.74,0-1.35-0.6-1.35-1.35V1.85C0.5,1.1,1.1,0.5,1.85,0.5h9.31c0.74,0,1.35,0.6,1.35,1.35 v9.31C12.5,11.9,11.9,12.5,11.15,12.5z"/><polygon class="st1" points="0,6.5 0,0 6.5,0 "/><path class="st2" d="M6.49,9.13c-0.37,0-0.7-0.06-0.99-0.19S4.98,8.63,4.81,8.41C4.65,8.18,4.56,7.92,4.55,7.62h1.08 c0.01,0.12,0.05,0.23,0.12,0.33c0.08,0.09,0.18,0.17,0.3,0.22c0.13,0.05,0.27,0.08,0.43,0.08c0.16,0,0.31-0.03,0.44-0.09 C7.05,8.1,7.15,8.02,7.22,7.92c0.07-0.1,0.11-0.22,0.11-0.36c0-0.14-0.04-0.26-0.11-0.36C7.14,7.09,7.03,7.01,6.89,6.95 c-0.14-0.06-0.31-0.09-0.5-0.09H5.92V6.07h0.47c0.16,0,0.31-0.03,0.43-0.08c0.12-0.06,0.22-0.13,0.29-0.24 c0.07-0.1,0.1-0.22,0.1-0.35c0-0.13-0.03-0.24-0.09-0.34c-0.06-0.1-0.15-0.17-0.25-0.23C6.77,4.78,6.64,4.75,6.5,4.75 c-0.15,0-0.28,0.03-0.4,0.08C5.98,4.88,5.88,4.96,5.81,5.05c-0.07,0.1-0.11,0.21-0.12,0.34H4.66c0-0.29,0.09-0.55,0.25-0.78 c0.16-0.22,0.38-0.4,0.66-0.53C5.84,3.96,6.15,3.9,6.5,3.9c0.35,0,0.66,0.06,0.92,0.19c0.26,0.13,0.47,0.3,0.62,0.52 s0.22,0.46,0.22,0.73c0,0.29-0.09,0.52-0.26,0.71C7.81,6.24,7.58,6.36,7.3,6.41v0.04C7.67,6.5,7.96,6.63,8.15,6.84 c0.2,0.21,0.29,0.48,0.29,0.79c0,0.29-0.08,0.55-0.25,0.77s-0.4,0.4-0.7,0.53C7.21,9.07,6.87,9.13,6.49,9.13z"/></svg>