<?xml version="1.0" encoding="utf-8"?><svg version="1.1" xmlns="http://www.w3.org/2000/svg" xmlns:xlink="http://www.w3.org/1999/xlink" width="13" height="13" x="0px" y="0px" viewBox="0 0 13 13" style="enable-background:new 0 0 13 13;" xml:space="preserve"><style type="text/css">.st0{fill:#FFFFFF;stroke:#BEBEBE;stroke-width:0.77;stroke-miterlimit:10;} .st1{fill:#FED500;} .st2{fill:#5D5D5D;}</style><path class="st0" d="M11.15,12.5H1.85c-0.74,0-1.35-0.6-1.35-1.35V1.85C0.5,1.1,1.1,0.5,1.85,0.5h9.31c0.74,0,1.35,0.6,1.35,1.35 v9.31C12.5,11.9,11.9,12.5,11.15,12.5z"/><polygon class="st1" points="0,6.5 0,0 6.5,0 "/><path class="st2" d="M4.46,8.17V7.32l2.13-3.35h0.73v1.17H6.89L5.55,7.26V7.3h3.02v0.86H4.46z M6.91,9.06V7.91l0.02-0.38V3.97 h1.01v5.09H6.91z"/></svg>