<?xml version="1.0" encoding="utf-8"?><svg version="1.1" xmlns="http://www.w3.org/2000/svg" xmlns:xlink="http://www.w3.org/1999/xlink" width="13" height="13" x="0px" y="0px" viewBox="0 0 13 13" style="enable-background:new 0 0 13 13;" xml:space="preserve"><style type="text/css">.st0{fill:#FFFFFF;stroke:#BEBEBE;stroke-width:0.77;stroke-miterlimit:10;} .st1{fill:#FED500;} .st2{fill:#5D5D5D;}</style><path class="st0" d="M11.15,12.5H1.85c-0.74,0-1.35-0.6-1.35-1.35V1.85C0.5,1.1,1.1,0.5,1.85,0.5h9.31c0.74,0,1.35,0.6,1.35,1.35 v9.31C12.5,11.9,11.9,12.5,11.15,12.5z"/><polygon class="st1" points="0,6.5 0,0 6.5,0 "/><path class="st2" d="M6.52,9.13c-0.35,0-0.66-0.06-0.94-0.19C5.3,8.81,5.09,8.63,4.93,8.4C4.76,8.17,4.68,7.92,4.67,7.62h1.04 c0.01,0.2,0.09,0.36,0.25,0.48C6.12,8.22,6.3,8.29,6.52,8.29c0.17,0,0.32-0.04,0.45-0.11S7.2,7.99,7.27,7.86 c0.07-0.14,0.11-0.29,0.11-0.47c0-0.18-0.04-0.34-0.11-0.47S7.09,6.68,6.96,6.6C6.82,6.52,6.67,6.48,6.5,6.48 c-0.15,0-0.29,0.03-0.43,0.09C5.93,6.64,5.82,6.72,5.74,6.82L4.78,6.65l0.24-2.68h3.11v0.88H5.91L5.78,6.12h0.03 C5.9,6,6.03,5.89,6.22,5.81C6.4,5.73,6.6,5.69,6.82,5.69c0.31,0,0.58,0.07,0.82,0.22C7.88,6.05,8.07,6.25,8.21,6.5 c0.14,0.25,0.21,0.54,0.21,0.87c0,0.34-0.08,0.65-0.24,0.91C8.02,8.54,7.8,8.75,7.51,8.9C7.23,9.05,6.89,9.13,6.52,9.13z"/></svg>