<?xml version="1.0" encoding="utf-8"?><svg version="1.1" xmlns="http://www.w3.org/2000/svg" xmlns:xlink="http://www.w3.org/1999/xlink" width="13" height="13" x="0px" y="0px" viewBox="0 0 13 13" style="enable-background:new 0 0 13 13;" xml:space="preserve"><style type="text/css">.st0{fill:#FFFFFF;stroke:#BEBEBE;stroke-width:0.77;stroke-miterlimit:10;} .st1{fill:#FED500;} .st2{fill:#5D5D5D;}</style><path class="st0" d="M11.15,12.5H1.85c-0.74,0-1.35-0.6-1.35-1.35V1.85C0.5,1.1,1.1,0.5,1.85,0.5h9.31c0.74,0,1.35,0.6,1.35,1.35 v9.31C12.5,11.9,11.9,12.5,11.15,12.5z"/><polygon class="st1" points="0,6.5 0,0 6.5,0 "/><path class="st2" d="M6.56,9.13C6.29,9.13,6.04,9.08,5.8,9C5.56,8.91,5.34,8.77,5.15,8.58C4.96,8.38,4.8,8.13,4.69,7.81 C4.58,7.49,4.52,7.09,4.52,6.63c0-0.43,0.05-0.82,0.15-1.16c0.1-0.34,0.24-0.63,0.42-0.86c0.18-0.24,0.4-0.42,0.65-0.54 c0.25-0.12,0.54-0.19,0.85-0.19c0.34,0,0.64,0.07,0.9,0.2C7.75,4.22,7.96,4.4,8.12,4.62s0.25,0.48,0.29,0.77H7.35 C7.3,5.21,7.22,5.06,7.09,4.96c-0.13-0.1-0.3-0.15-0.49-0.15c-0.33,0-0.58,0.15-0.75,0.43S5.58,5.93,5.58,6.43h0.03 c0.08-0.15,0.18-0.28,0.31-0.39C6.05,5.94,6.2,5.85,6.37,5.8s0.34-0.09,0.53-0.09c0.3,0,0.57,0.07,0.81,0.21s0.42,0.34,0.56,0.58 c0.14,0.25,0.2,0.53,0.2,0.85c0,0.34-0.08,0.65-0.24,0.92C8.06,8.54,7.84,8.75,7.55,8.91C7.27,9.06,6.93,9.13,6.56,9.13z M6.55,8.29c0.17,0,0.31-0.04,0.45-0.12C7.13,8.09,7.23,7.98,7.3,7.84c0.08-0.14,0.11-0.29,0.11-0.46S7.38,7.06,7.31,6.93 C7.23,6.8,7.13,6.69,7,6.61C6.87,6.53,6.72,6.49,6.56,6.49c-0.12,0-0.24,0.02-0.34,0.07c-0.11,0.05-0.2,0.11-0.28,0.19 C5.86,6.84,5.8,6.93,5.75,7.04C5.71,7.15,5.69,7.26,5.69,7.39c0,0.16,0.04,0.31,0.11,0.45c0.08,0.14,0.18,0.24,0.31,0.33 C6.24,8.24,6.39,8.29,6.55,8.29z"/></svg>