<?xml version="1.0" encoding="utf-8"?><svg version="1.1" xmlns="http://www.w3.org/2000/svg" xmlns:xlink="http://www.w3.org/1999/xlink" width="13" height="13" x="0px" y="0px" viewBox="0 0 13 13" style="enable-background:new 0 0 13 13;" xml:space="preserve"><style type="text/css">.st0{fill:#FFFFFF;stroke:#BEBEBE;stroke-width:0.77;stroke-miterlimit:10;} .st1{fill:#FED500;} .st2{fill:#5D5D5D;}</style><path class="st0" d="M11.15,12.5H1.85c-0.74,0-1.35-0.6-1.35-1.35V1.85C0.5,1.1,1.1,0.5,1.85,0.5h9.31c0.74,0,1.35,0.6,1.35,1.35 v9.31C12.5,11.9,11.9,12.5,11.15,12.5z"/><polygon class="st1" points="0,6.5 0,0 6.5,0 "/><path class="st2" d="M6.5,9.13c-0.38,0-0.72-0.06-1.02-0.19c-0.3-0.12-0.53-0.3-0.7-0.51C4.61,8.21,4.52,7.97,4.52,7.69 c0-0.21,0.05-0.41,0.15-0.58c0.1-0.18,0.23-0.33,0.4-0.45c0.17-0.12,0.35-0.19,0.56-0.23V6.4C5.36,6.34,5.14,6.21,4.97,6 C4.8,5.79,4.71,5.55,4.71,5.27c0-0.26,0.08-0.5,0.23-0.7C5.1,4.36,5.31,4.2,5.58,4.08C5.85,3.96,6.16,3.9,6.5,3.9 c0.34,0,0.65,0.06,0.92,0.18C7.69,4.2,7.9,4.36,8.05,4.57c0.15,0.21,0.23,0.44,0.23,0.7C8.29,5.55,8.2,5.79,8.03,6 C7.86,6.21,7.64,6.34,7.37,6.4v0.03c0.2,0.03,0.39,0.11,0.56,0.23c0.17,0.12,0.3,0.27,0.4,0.45c0.1,0.18,0.15,0.37,0.15,0.58 c0,0.28-0.09,0.52-0.26,0.74c-0.17,0.22-0.4,0.39-0.7,0.51S6.88,9.13,6.5,9.13z M6.5,8.34c0.17,0,0.32-0.03,0.45-0.09 c0.13-0.06,0.23-0.15,0.3-0.26s0.11-0.24,0.11-0.38c0-0.15-0.04-0.28-0.11-0.39s-0.18-0.2-0.3-0.27c-0.13-0.07-0.27-0.1-0.44-0.1 c-0.16,0-0.31,0.03-0.44,0.1C5.93,7.01,5.83,7.1,5.75,7.21S5.64,7.46,5.64,7.61c0,0.14,0.04,0.27,0.11,0.38s0.17,0.2,0.3,0.26 C6.18,8.31,6.33,8.34,6.5,8.34z M6.5,6.06c0.14,0,0.27-0.03,0.38-0.09c0.11-0.06,0.2-0.14,0.26-0.24c0.06-0.1,0.09-0.22,0.09-0.36 c0-0.13-0.03-0.25-0.09-0.35C7.08,4.93,6.99,4.85,6.88,4.8C6.77,4.74,6.64,4.71,6.5,4.71c-0.14,0-0.27,0.03-0.38,0.09 C6,4.85,5.92,4.93,5.86,5.03c-0.06,0.1-0.09,0.22-0.09,0.35c0,0.13,0.03,0.25,0.09,0.36c0.06,0.1,0.15,0.18,0.26,0.24 C6.23,6.04,6.36,6.06,6.5,6.06z"/></svg>