<?xml version="1.0" encoding="utf-8"?><svg version="1.1" xmlns="http://www.w3.org/2000/svg" xmlns:xlink="http://www.w3.org/1999/xlink" width="13" height="13" x="0px" y="0px" viewBox="0 0 13 13" style="enable-background:new 0 0 13 13;" xml:space="preserve"><style type="text/css">.st0{fill:#FFFFFF;stroke:#BEBEBE;stroke-width:0.77;stroke-miterlimit:10;} .st1{fill:#FED500;} .st2{fill:#5D5D5D;}</style><path class="st0" d="M11.15,12.5H1.85c-0.74,0-1.35-0.6-1.35-1.35V1.85C0.5,1.1,1.1,0.5,1.85,0.5h9.31c0.74,0,1.35,0.6,1.35,1.35 v9.31C12.5,11.9,11.9,12.5,11.15,12.5z"/><polygon class="st1" points="0,6.5 0,0 6.5,0 "/><path class="st2" d="M6.44,3.88c0.26,0,0.51,0.04,0.76,0.13C7.44,4.1,7.66,4.24,7.85,4.44S8.2,4.89,8.31,5.21 c0.11,0.32,0.17,0.71,0.17,1.18c0,0.43-0.05,0.82-0.15,1.16C8.23,7.88,8.09,8.17,7.91,8.4s-0.4,0.42-0.65,0.54 C7.01,9.07,6.72,9.13,6.41,9.13c-0.34,0-0.64-0.07-0.9-0.2S5.04,8.62,4.88,8.39C4.72,8.17,4.63,7.91,4.59,7.62h1.06 c0.04,0.19,0.13,0.33,0.26,0.43c0.13,0.1,0.3,0.15,0.49,0.15c0.33,0,0.58-0.14,0.76-0.43c0.17-0.29,0.26-0.69,0.26-1.19H7.39 C7.31,6.73,7.21,6.86,7.08,6.97C6.95,7.08,6.8,7.16,6.64,7.22C6.47,7.27,6.29,7.3,6.11,7.3c-0.3,0-0.57-0.07-0.8-0.21 C5.07,6.95,4.88,6.76,4.74,6.51c-0.14-0.25-0.2-0.53-0.2-0.85c0-0.34,0.08-0.65,0.24-0.92c0.16-0.27,0.38-0.48,0.67-0.63 C5.73,3.96,6.06,3.88,6.44,3.88z M6.45,4.73c-0.17,0-0.32,0.04-0.45,0.12C5.88,4.93,5.77,5.04,5.7,5.17 C5.62,5.31,5.58,5.46,5.59,5.63c0,0.17,0.03,0.32,0.11,0.45C5.77,6.22,5.87,6.33,6,6.4c0.13,0.08,0.28,0.12,0.44,0.12 c0.12,0,0.24-0.02,0.34-0.07c0.11-0.05,0.2-0.11,0.28-0.19C7.14,6.18,7.2,6.08,7.25,5.97c0.04-0.11,0.07-0.23,0.07-0.35 c0-0.16-0.04-0.31-0.11-0.45C7.13,5.04,7.02,4.93,6.89,4.85C6.76,4.77,6.62,4.73,6.45,4.73z"/></svg>