<?xml version="1.0" encoding="utf-8"?><svg version="1.1" xmlns="http://www.w3.org/2000/svg" xmlns:xlink="http://www.w3.org/1999/xlink" width="13" height="13" x="0px" y="0px" viewBox="0 0 13 13" style="enable-background:new 0 0 13 13;" xml:space="preserve"><style type="text/css">.st0{fill:#FFFFFF;stroke:#BEBEBE;stroke-width:0.77;stroke-miterlimit:10;} .st1{fill:#FED500;} .st2{fill:#5D5D5D;}</style><path class="st0" d="M11.15,12.5H1.85c-0.74,0-1.35-0.6-1.35-1.35V1.85C0.5,1.1,1.1,0.5,1.85,0.5h9.31c0.74,0,1.35,0.6,1.35,1.35 v9.31C12.5,11.9,11.9,12.5,11.15,12.5z"/><polygon class="st1" points="0,6.5 0,0 6.5,0 "/><path class="st2" d="M7.7,4.29c0.41,0.19,0.61,0.5,0.66,1.03C8.38,5.52,8.39,5.8,8.39,6.5c0,1.35-0.02,1.55-0.23,1.85 C7.99,8.59,7.73,8.76,7.41,8.83C7.24,8.87,6.89,8.89,6.49,8.89c-0.62,0-0.95-0.04-1.19-0.15c-0.41-0.2-0.61-0.5-0.66-1.04 C4.62,7.5,4.61,7.18,4.61,6.5c0-1.33,0.03-1.54,0.23-1.83C5,4.43,5.28,4.26,5.59,4.19c0.16-0.04,0.53-0.06,0.9-0.06 C7.15,4.13,7.44,4.17,7.7,4.29z M7.52,6.46c0-0.99-0.02-1.2-0.15-1.37c-0.11-0.15-0.33-0.2-0.93-0.2c-0.48,0-0.66,0.04-0.77,0.17C5.54,5.19,5.51,5.34,5.49,5.7c0,0.1,0,0.1-0.01,0.81C5.49,7.34,5.49,7.34,5.5,7.51c0.02,0.27,0.12,0.46,0.29,0.53C5.93,8.1,6.1,8.12,6.47,8.12c0.56,0,0.77-0.05,0.88-0.2c0.11-0.15,0.14-0.29,0.15-0.7L7.52,6.46z"/></svg>