<?xml version="1.0" encoding="utf-8"?><svg version="1.1" xmlns="http://www.w3.org/2000/svg" xmlns:xlink="http://www.w3.org/1999/xlink" width="13" height="13" x="0px" y="0px" viewBox="0 0 13 13" style="enable-background:new 0 0 13 13;" xml:space="preserve"><style type="text/css">.st0{fill:#FFFFFF;stroke:#BEBEBE;stroke-width:0.77;stroke-miterlimit:10;} .st1{fill:#FED500;} .st2{fill:#5D5D5D;}</style><path class="st0" d="M11.15,12.5H1.85c-0.74,0-1.35-0.6-1.35-1.35V1.85C0.5,1.1,1.1,0.5,1.85,0.5h9.31c0.74,0,1.35,0.6,1.35,1.35 v9.31C12.5,11.9,11.9,12.5,11.15,12.5z"/><polygon class="st1" points="0,6.5 0,0 6.5,0 "/><path class="st2" d="M5.2,8.84H4.32v-3.9L3.1,6.15L2.57,5.58l1.51-1.41H5.2V8.84z"/> <path class="st2" d="M9.9,4.29c0.41,0.19,0.61,0.5,0.66,1.03c0.02,0.2,0.03,0.48,0.03,1.18c0,1.35-0.02,1.55-0.23,1.85 C10.19,8.59,9.92,8.76,9.6,8.83C9.43,8.87,9.09,8.89,8.69,8.89c-0.62,0-0.95-0.04-1.19-0.15c-0.41-0.2-0.61-0.5-0.66-1.04 C6.81,7.5,6.81,7.18,6.81,6.5c0-1.33,0.03-1.54,0.23-1.83c0.15-0.23,0.43-0.41,0.75-0.47c0.16-0.04,0.53-0.06,0.9-0.06 C9.34,4.13,9.64,4.17,9.9,4.29z M9.71,6.46c0-0.99-0.02-1.2-0.15-1.37c-0.11-0.15-0.33-0.2-0.93-0.2c-0.48,0-0.66,0.04-0.77,0.17 C7.74,5.19,7.71,5.34,7.68,5.7c0,0.1,0,0.1-0.01,0.81C7.68,7.34,7.68,7.34,7.7,7.51c0.02,0.27,0.12,0.46,0.29,0.53 C8.12,8.1,8.29,8.12,8.66,8.12c0.56,0,0.77-0.05,0.88-0.2c0.1-0.15,0.14-0.29,0.15-0.7L9.71,6.46z"/></svg>