<?xml version="1.0" encoding="utf-8"?><svg version="1.1" xmlns="http://www.w3.org/2000/svg" xmlns:xlink="http://www.w3.org/1999/xlink" width="13" height="13" x="0px" y="0px" viewBox="0 0 13 13" style="enable-background:new 0 0 13 13;" xml:space="preserve"><style type="text/css">.st0{fill:#FFFFFF;stroke:#BEBEBE;stroke-width:0.77;stroke-miterlimit:10;} .st1{fill:#FED500;} .st2{fill:#5D5D5D;}</style><path class="st0" d="M11.15,12.5H1.85c-0.74,0-1.35-0.6-1.35-1.35V1.85C0.5,1.1,1.1,0.5,1.85,0.5h9.31c0.74,0,1.35,0.6,1.35,1.35 v9.31C12.5,11.9,11.9,12.5,11.15,12.5z"/><polygon class="st1" points="0,6.5 0,0 6.5,0 "/><path class="st2" d="M8.23,8.84H4.7V7.87C4.72,6.9,4.96,6.68,6.22,6.49c1.12-0.2,1.14-0.21,1.14-0.9c0-0.62-0.13-0.72-0.88-0.72 		c-0.81,0-0.91,0.09-0.91,0.77v0.18H4.72c0.01-0.75,0.03-0.91,0.17-1.16C5.11,4.28,5.56,4.13,6.5,4.13c1.34,0,1.73,0.34,1.73,1.49 		c0,0.62-0.11,0.95-0.39,1.16c-0.2,0.15-0.47,0.24-1.17,0.36c-1.06,0.17-1.09,0.2-1.09,0.84L5.57,8.12h2.66V8.84z"/></svg>