<?xml version="1.0" encoding="utf-8"?><svg version="1.1" xmlns="http://www.w3.org/2000/svg" xmlns:xlink="http://www.w3.org/1999/xlink" width="13" height="13" x="0px" y="0px" viewBox="0 0 13 13" style="enable-background:new 0 0 13 13;" xml:space="preserve"><style type="text/css">.st0{fill:#FFFFFF;stroke:#BEBEBE;stroke-width:0.77;stroke-miterlimit:10;} .st1{fill:#FED500;} .st2{fill:#5D5D5D;}</style><path class="st0" d="M11.15,12.5H1.85c-0.74,0-1.35-0.6-1.35-1.35V1.85C0.5,1.1,1.1,0.5,1.85,0.5h9.31c0.74,0,1.35,0.6,1.35,1.35 v9.31C12.5,11.9,11.9,12.5,11.15,12.5z"/><polygon class="st1" points="0,6.5 0,0 6.5,0 "/><path class="st2" d="M6.11,6.11h0.14c0.6,0,0.77-0.01,0.89-0.08c0.14-0.08,0.19-0.2,0.19-0.5c0-0.61-0.08-0.67-0.92-0.67 		c-0.76,0-0.85,0.08-0.85,0.69v0.12H4.7c0.01-0.66,0.03-0.8,0.15-1.02c0.21-0.38,0.63-0.52,1.58-0.52c1.35,0,1.78,0.29,1.78,1.23 		c0,0.71-0.2,1-0.78,1.09v0.03C8.06,6.54,8.27,6.8,8.27,7.52c0,0.52-0.11,0.83-0.34,1.04C7.66,8.8,7.29,8.89,6.49,8.89 		c-0.83,0-1.21-0.07-1.48-0.28c-0.25-0.2-0.39-0.56-0.39-1.08c0-0.06,0-0.15,0.01-0.27h0.86c0,0.85,0.05,0.89,1,0.89 		c0.78,0,0.9-0.1,0.9-0.74c0-0.34-0.08-0.49-0.29-0.57C6.99,6.8,6.94,6.8,6.26,6.8H6.11V6.11z"/></svg>