<?xml version="1.0" encoding="utf-8"?><svg version="1.1" xmlns="http://www.w3.org/2000/svg" xmlns:xlink="http://www.w3.org/1999/xlink" width="13" height="13" x="0px" y="0px" viewBox="0 0 13 13" style="enable-background:new 0 0 13 13;" xml:space="preserve"><style type="text/css">.st0{fill:#FFFFFF;stroke:#BEBEBE;stroke-width:0.77;stroke-miterlimit:10;} .st1{fill:#FED500;} .st2{fill:#5D5D5D;}</style><path class="st0" d="M11.15,12.5H1.85c-0.74,0-1.35-0.6-1.35-1.35V1.85C0.5,1.1,1.1,0.5,1.85,0.5h9.31c0.74,0,1.35,0.6,1.35,1.35 v9.31C12.5,11.9,11.9,12.5,11.15,12.5z"/><polygon class="st1" points="0,6.5 0,0 6.5,0 "/><path class="st2" d="M8.1,4.86H5.65L5.64,6h0.01c0.21-0.29,0.43-0.36,1.1-0.36c0.63,0,0.98,0.1,1.22,0.36 C8.21,6.24,8.3,6.58,8.3,7.25c0,1.3-0.38,1.63-1.86,1.63c-0.86,0-1.26-0.12-1.5-0.46C4.79,8.21,4.74,7.99,4.73,7.5H5.6 c0.03,0.57,0.13,0.65,0.83,0.65c0.48,0,0.71-0.04,0.85-0.15c0.11-0.1,0.14-0.24,0.14-0.83c0-0.71-0.13-0.83-0.9-0.83 c-0.68,0-0.83,0.06-0.9,0.33h-0.8v-2.5H8.1V4.86z"/></svg>