<?xml version="1.0" encoding="utf-8"?><svg version="1.1" xmlns="http://www.w3.org/2000/svg" xmlns:xlink="http://www.w3.org/1999/xlink" width="13" height="13" x="0px" y="0px" viewBox="0 0 13 13" style="enable-background:new 0 0 13 13;" xml:space="preserve"><style type="text/css">.st0{fill:#FFFFFF;stroke:#BEBEBE;stroke-width:0.77;stroke-miterlimit:10;} .st1{fill:#FED500;} .st2{fill:#5D5D5D;}</style><path class="st0" d="M11.15,12.5H1.85c-0.74,0-1.35-0.6-1.35-1.35V1.85C0.5,1.1,1.1,0.5,1.85,0.5h9.31c0.74,0,1.35,0.6,1.35,1.35 v9.31C12.5,11.9,11.9,12.5,11.15,12.5z"/><polygon class="st1" points="0,6.5 0,0 6.5,0 "/><path class="st2" d="M7.37,5.49l0.01-0.1c0-0.43-0.13-0.52-0.78-0.52c-0.91,0-1.02,0.08-1.02,0.78v0.8h0.01 C5.78,6.07,5.95,6,6.68,6c0.7,0,1.04,0.07,1.27,0.28c0.23,0.2,0.34,0.54,0.34,1.09c0,0.65-0.14,1.05-0.43,1.27 C7.6,8.82,7.26,8.89,6.52,8.89c-0.67,0-0.99-0.05-1.25-0.19c-0.5-0.27-0.6-0.62-0.6-1.99c0-0.86,0.02-1.4,0.07-1.65 c0.08-0.4,0.33-0.69,0.73-0.82c0.21-0.07,0.55-0.1,1.02-0.1c0.86,0,1.26,0.09,1.5,0.36c0.18,0.2,0.27,0.47,0.27,0.87 c0,0.01,0,0.08-0.01,0.13H7.37z M5.56,7.36c0,0.7,0.11,0.8,0.93,0.8c0.83,0,0.93-0.08,0.93-0.72c0-0.65-0.08-0.72-0.94-0.72 C5.69,6.72,5.56,6.81,5.56,7.36z"/></svg>