<?xml version="1.0" encoding="utf-8"?><svg version="1.1" xmlns="http://www.w3.org/2000/svg" xmlns:xlink="http://www.w3.org/1999/xlink" width="13" height="13" x="0px" y="0px" viewBox="0 0 13 13" style="enable-background:new 0 0 13 13;" xml:space="preserve"><style type="text/css">.st0{fill:#FFFFFF;stroke:#BEBEBE;stroke-width:0.77;stroke-miterlimit:10;} .st1{fill:#FED500;} .st2{fill:#5D5D5D;}</style><path class="st0" d="M11.15,12.5H1.85c-0.74,0-1.35-0.6-1.35-1.35V1.85C0.5,1.1,1.1,0.5,1.85,0.5h9.31c0.74,0,1.35,0.6,1.35,1.35 v9.31C12.5,11.9,11.9,12.5,11.15,12.5z"/><polygon class="st1" points="0,6.5 0,0 6.5,0 "/><path class="st2" d="M7.49,6.45C8.11,6.55,8.3,6.81,8.3,7.56c0,0.53-0.1,0.83-0.34,1.02C7.69,8.81,7.31,8.89,6.48,8.89 c-1.44,0-1.83-0.27-1.83-1.32c0-0.75,0.2-1.02,0.82-1.13V6.43c-0.29-0.07-0.4-0.12-0.5-0.2C4.8,6.08,4.72,5.79,4.72,5.38 c0-0.45,0.1-0.78,0.32-0.96C5.29,4.19,5.6,4.13,6.51,4.13c0.85,0,1.16,0.06,1.41,0.29C8.13,4.6,8.24,4.94,8.24,5.41 c0,0.65-0.17,0.88-0.75,1.03V6.45z M5.52,7.44c0,0.64,0.08,0.7,0.98,0.7c0.81,0,0.93-0.09,0.93-0.69c0-0.57-0.11-0.65-0.97-0.65 C5.63,6.8,5.52,6.88,5.52,7.44z M5.58,5.46c0,0.28,0.04,0.42,0.13,0.52c0.1,0.11,0.25,0.13,0.83,0.13c0.46,0,0.57-0.02,0.68-0.12 c0.1-0.09,0.14-0.25,0.14-0.53c0-0.53-0.1-0.6-0.88-0.6C5.67,4.85,5.58,4.91,5.58,5.46z"/></svg>