<?xml version="1.0" encoding="utf-8"?><svg version="1.1" xmlns="http://www.w3.org/2000/svg" xmlns:xlink="http://www.w3.org/1999/xlink" width="13" height="13" x="0px" y="0px" viewBox="0 0 13 13" style="enable-background:new 0 0 13 13;" xml:space="preserve"><style type="text/css">.st0{fill:#FFFFFF;stroke:#BEBEBE;stroke-width:0.77;stroke-miterlimit:10;} .st1{fill:#FED500;} .st2{fill:#5D5D5D;}</style><path class="st0" d="M11.15,12.5H1.85c-0.74,0-1.35-0.6-1.35-1.35V1.85C0.5,1.1,1.1,0.5,1.85,0.5h9.31c0.74,0,1.35,0.6,1.35,1.35 v9.31C12.5,11.9,11.9,12.5,11.15,12.5z"/><polygon class="st1" points="0,6.5 0,0 6.5,0 "/><path class="st2" d="M5.5,7.53C5.49,7.77,5.51,7.88,5.58,7.98C5.67,8.12,5.8,8.15,6.4,8.15c0.9,0,0.97-0.07,0.97-0.91V6.56H7.36 C7.17,6.94,6.98,7.02,6.24,7.02C5,7.02,4.67,6.74,4.67,5.66c0-0.64,0.11-1.01,0.36-1.23c0.27-0.22,0.63-0.3,1.38-0.3 c1.06,0,1.46,0.15,1.68,0.64c0.14,0.3,0.17,0.59,0.17,1.69c0,1.34-0.03,1.59-0.22,1.9c-0.25,0.4-0.64,0.53-1.66,0.53 c-0.79,0-1.12-0.06-1.4-0.27C4.74,8.44,4.63,8.12,4.63,7.67V7.53H5.5z M5.54,5.56c0,0.68,0.08,0.75,0.92,0.75 c0.78,0,0.92-0.09,0.92-0.62c0-0.74-0.1-0.82-0.95-0.82C5.65,4.87,5.54,4.96,5.54,5.56z"/></svg>